<?xml version="1.0" encoding="utf-8"?>
<!-- Generator: Adobe Illustrator 16.0.0, SVG Export Plug-In . SVG Version: 6.00 Build 0)  -->
<!DOCTYPE svg PUBLIC "-//W3C//DTD SVG 1.1//EN" "http://www.w3.org/Graphics/SVG/1.1/DTD/svg11.dtd">
<svg version="1.1" id="Layer_1" xmlns="http://www.w3.org/2000/svg" xmlns:xlink="http://www.w3.org/1999/xlink" x="0px" y="0px"
	 width="741.891px" height="136.69px" viewBox="0 0 741.891 136.69" enable-background="new 0 0 741.891 136.69"
	 xml:space="preserve">
<path fill-rule="evenodd" clip-rule="evenodd" fill="#F5AE3A" d="M197.47,90.061l0.285-0.206l0.537-0.439l0.537-0.49l0.53-0.544
	l0.519-0.596l0.512-0.659l0.503-0.711l0.489-0.779l0.476-0.84l0.463-0.911l0.442-0.974l0.417-1.042l0.397-1.114l0.367-1.179
	l0.338-1.25l0.309-1.316l0.273-1.383l0.234-1.457l0.2-1.525l0.16-1.593l0.117-1.66l0.067-1.596l-0.067-1.595l-0.117-1.661
	l-0.16-1.592l-0.2-1.525l-0.234-1.457l-0.273-1.384l-0.309-1.315l-0.338-1.251l-0.367-1.179l-0.397-1.113l-0.417-1.043l-0.442-0.974
	l-0.463-0.91l-0.476-0.841l-0.489-0.779l-0.503-0.711l-0.512-0.659l-0.519-0.596l-0.53-0.544l-0.537-0.489l-0.537-0.44l-0.285-0.206
	l-0.498-0.307l-0.611-0.322l-0.624-0.287l-0.631-0.248l-0.641-0.208l-0.664-0.175l-0.674-0.135l-0.687-0.095l-0.707-0.061
	l-0.715-0.019l-0.683,0.019l-0.659,0.064l-0.638,0.099l-0.631,0.139l-0.621,0.177l-0.609,0.218l-0.601,0.256l-0.594,0.298
	l-0.595,0.346l-0.587,0.386l-0.579,0.435l-0.577,0.484l-0.57,0.538l-0.562,0.587l-0.551,0.639l-0.537,0.697l-0.522,0.751
	l-0.511,0.807l-0.489,0.869l-0.469,0.922l-0.438,0.98l-0.42,1.036l-0.389,1.097l-0.357,1.152l-0.323,1.206l-0.287,1.267
	l-0.249,1.324l-0.209,1.377l-0.167,1.43l-0.122,1.484l-0.072,1.535l-0.023,1.502l0.023,1.503l0.072,1.533l0.122,1.485l0.167,1.43
	l0.209,1.378l0.249,1.323l0.287,1.267l0.323,1.207l0.357,1.151l0.389,1.097l0.42,1.036l0.438,0.98l0.469,0.922l0.489,0.869
	l0.511,0.808l0.522,0.751l0.537,0.696l0.551,0.639l0.562,0.587l0.57,0.538l0.577,0.484l0.579,0.435l0.587,0.386l0.595,0.347
	l0.594,0.299l0.601,0.255l0.609,0.219l0.621,0.177l0.631,0.14l0.638,0.098l0.659,0.064l0.683,0.019l0.715-0.019l0.707-0.062
	l0.687-0.095l0.674-0.135l0.664-0.175l0.641-0.208l0.631-0.248l0.624-0.286l0.611-0.322L197.47,90.061z M248.7,31.275l25.123,36.593
	l-25.782,37.552c6.183-10.126,9.568-21.873,10.161-33.779l0.004-0.104c0.029-0.605,0.053-1.211,0.068-1.817
	c0.005-0.228,0.007-0.454,0.011-0.682c0.006-0.413,0.013-0.827,0.013-1.242c0-0.414-0.007-0.828-0.013-1.242
	c-0.004-0.227-0.005-0.454-0.011-0.681c-0.015-0.606-0.039-1.21-0.068-1.815l-0.004-0.106
	C257.631,52.475,254.466,41.146,248.7,31.275z M124.446,55.168c-0.271,1.732-0.483,3.476-0.635,5.226
	c-0.091,0.916-0.165,1.838-0.223,2.766l0.035-0.07c-0.081,1.557-0.115,3.118-0.103,4.678v0.057c-0.012,1.56,0.022,3.12,0.103,4.677
	l-0.035-0.069c0.058,0.926,0.132,1.846,0.222,2.762c0.183,2.099,0.451,4.188,0.805,6.26c-1.265-4.943-3.369-9.497-6.13-13.462
	C121.127,64.196,123.168,59.864,124.446,55.168z M386.363,49.966h45.071l5.008,15.638l5.841-15.638h188.611v35.668h-20.849
	l-0.001,50.225h-42.148V86.052h-15.44v15.129h6.413v34.679H386.781h-66.775l-11.063-19.985l-10.88,19.985
	c-23.638,0-47.28,0-70.919,0l17.006-24.77c-6.98,9.077-16.546,16.398-28.711,20.662c-1.041,0.382-2.096,0.74-3.167,1.073
	c-6.652,1.966-14.01,3.052-22.099,3.034l-0.225-0.002c-9.406,0.063-17.81-1.408-25.215-4.088l-0.185-0.068
	c-0.266-0.097-0.528-0.2-0.792-0.301c-10.949-4.26-19.882-11.19-26.528-19.965c-5.666-7.543-9.574-16.324-11.727-25.585
	c0.313,2.115,0.477,4.288,0.477,6.502c0,2.681-0.241,5.299-0.697,7.832c-2.929,18.382-18.259,34.681-48.654,35.777l-0.179,0.021
	h-0.383h-0.009H38.027H0V0h25.352l50.703-0.001L76.072,0h0.375l0.175,0.02c30.397,1.096,45.729,17.395,48.658,35.778
	c0.456,2.534,0.697,5.152,0.697,7.832c0,1.89-0.119,3.75-0.349,5.57c2.178-9.062,6.044-17.647,11.599-25.043
	c6.646-8.775,15.579-15.705,26.528-19.965c0.264-0.1,0.526-0.203,0.792-0.301l0.185-0.068c7.405-2.68,15.809-4.15,25.215-4.089
	l0.225-0.001c8.089-0.018,15.447,1.069,22.099,3.035c1.058,0.329,2.1,0.682,3.129,1.059c11.732,4.104,21.049,11.05,27.963,19.673
	l-16.22-23.624c23.64,0,47.28,0,70.919,0l10.88,19.986l11.063-19.986h66.608h-0.001h0.394l-44.813,67.992l44.587,67.648
	L386.363,49.966z"/>
<path fill-rule="evenodd" clip-rule="evenodd" fill="#DF232E" d="M548.024,75.529l-34.004-0.03v8.239l28.822,0.233l-0.001,16.587
	l-29.102,0.001l-0.034,8.763l30.698-0.092h5.166v18.579h-60.839l0.937-69.792h58.358L548.024,75.529z M477.589,127.809h-21.631
	l0.415-40.477l-11.654,40.477H429.32l-12.696-42.979l0.626,42.979l-22.457,0.001l-0.339-69.792h30.271l11.548,41.325l11.599-41.325
	h29.613L477.589,127.809z M289.4,7.928h3.878l15.605,28.666L324.75,7.928h46.988l-39.161,59.94l39.161,59.942H324.75l-15.867-28.666
	l-15.605,28.665H289.4v0.001h-46.964l41.153-59.942l-41.153-59.94H289.4z M191.009,35.785c12.34,0,21.749,10.91,22.346,31.925
	c0.598,21.014-10.007,31.923-22.346,31.923s-22.345-12.104-22.345-31.923C168.664,47.89,178.668,35.786,191.009,35.785z
	 M190.133,7.456l7.558,0.373l6.971,1.041l6.418,1.649l5.885,2.207l5.378,2.716l4.889,3.184l4.415,3.613l3.951,4.009l3.498,4.373
	l3.04,4.696l2.583,4.983l2.117,5.227l1.652,5.425l1.179,5.575l0.702,5.677l0.226,5.727l-0.253,5.729l-0.731,5.675l-1.205,5.57
	l-1.675,5.421l-2.14,5.22l-2.602,4.971l-3.055,4.686l-3.508,4.357l-3.956,3.994l-4.413,3.594l-4.878,3.161l-5.359,2.689
	l-5.857,2.178l-6.378,1.619l-6.919,1.008l-7.451,0.337l-7.28-0.411l-6.756-1.071l-6.224-1.677l-5.72-2.229l-5.233-2.738
	l-4.769-3.206l-4.315-3.637l-3.873-4.037l-3.431-4.4l-2.992-4.729l-2.546-5.015l-2.094-5.258l-1.637-5.453l-1.175-5.604
	l-0.708-5.701l-0.242-5.748l0.231-5.739l0.697-5.685l1.163-5.576l1.624-5.416l2.082-5.207l2.53-4.958l2.975-4.659l3.415-4.326
	l3.855-3.954l4.299-3.551l4.755-3.113l5.223-2.643l5.715-2.126l6.23-1.57l6.769-0.959L190.133,7.456z M75.83,127.932h0.101
	l0.082-0.01l4.166-0.24l4.077-0.477l3.798-0.685l3.523-0.876l3.256-1.05l2.998-1.21l2.746-1.351l2.51-1.486l2.282-1.604l2.062-1.712
	l1.854-1.81l1.656-1.907l1.468-1.994l1.282-2.075l1.103-2.15l0.927-2.225l0.754-2.286l0.579-2.341l0.406-2.39l0.234-2.429
	l0.062-2.457l-0.111-2.475l-0.281-2.48l-0.453-2.475l-0.621-2.458l-0.788-2.427l-0.953-2.384l-1.117-2.332l-1.277-2.268
	l-1.436-2.189l-1.59-2.102c-0.652-0.585-1.289-1.113-1.915-1.588c0.626-0.476,1.263-1.004,1.915-1.588l1.59-2.102l1.436-2.19
	l1.277-2.267l1.117-2.332l0.953-2.385l0.788-2.426l0.621-2.458l0.453-2.474l0.281-2.482l0.111-2.473l-0.062-2.457l-0.234-2.43
	l-0.406-2.389l-0.579-2.34l-0.754-2.288l-0.927-2.224l-1.103-2.15l-1.282-2.075l-1.468-1.995l-1.656-1.906l-1.854-1.81l-2.062-1.712
	l-2.282-1.603l-2.51-1.486l-2.746-1.352l-2.998-1.21l-3.256-1.049l-3.523-0.877l-3.798-0.684l-4.077-0.477l-4.17-0.239l-0.078-0.01
	h-0.095l-0.011-0.001H8.052v0.001v119.88h67.773H75.83z M43.417,36.828v19.343l16.64,0.001c8.041-0.418,11.924-3.884,11.647-10.4
	c-0.054-5.842-3.485-9.203-11.856-8.944H43.417z M43.417,99.155V79.813l16.64-0.001c8.041,0.417,11.924,3.883,11.647,10.399
	c-0.054,5.842-3.485,9.204-11.856,8.944H43.417z M555.928,58.018h65.562l0.001,19.567h-20.745l-0.002,50.225h-24.797l0.002-50.425
	h-20.095L555.928,58.018z"/>
<path fill-rule="evenodd" clip-rule="evenodd" fill="#DF232E" d="M650.269,33.927h2.935c1.396,0,2.354-0.214,2.863-0.629
	c0.511-0.415,0.769-0.97,0.769-1.662c0-0.441-0.126-0.838-0.371-1.19c-0.246-0.346-0.586-0.61-1.02-0.781
	c-0.441-0.176-1.247-0.258-2.432-0.258h-2.744V33.927z M647.851,42.352V27.38h5.144c1.763,0,3.035,0.132,3.822,0.409
	c0.786,0.277,1.409,0.762,1.882,1.448c0.466,0.693,0.698,1.423,0.698,2.198c0,1.095-0.39,2.045-1.171,2.858
	c-0.78,0.812-1.818,1.265-3.109,1.366c0.528,0.22,0.957,0.485,1.271,0.793c0.604,0.592,1.341,1.58,2.216,2.972l1.826,2.927h-2.953
	l-1.328-2.361c-1.045-1.851-1.883-3.015-2.524-3.481c-0.44-0.346-1.089-0.516-1.939-0.516h-1.416v6.358H647.851z M653.958,23.042
	c-1.958,0-3.859,0.504-5.71,1.505c-1.852,1.001-3.299,2.437-4.344,4.294c-1.045,1.863-1.568,3.802-1.568,5.823
	c0,2.002,0.516,3.922,1.543,5.761c1.025,1.838,2.461,3.273,4.306,4.3c1.845,1.026,3.766,1.542,5.773,1.542
	c2.002,0,3.928-0.516,5.772-1.542c1.846-1.027,3.274-2.462,4.295-4.3c1.02-1.839,1.529-3.759,1.529-5.761
	c0-2.021-0.517-3.96-1.555-5.823c-1.039-1.857-2.487-3.293-4.345-4.294S655.897,23.042,653.958,23.042z M653.958,20.738
	c2.336,0,4.615,0.598,6.843,1.794c2.223,1.203,3.96,2.915,5.201,5.15c1.24,2.229,1.863,4.559,1.863,6.982
	c0,2.399-0.61,4.703-1.839,6.913c-1.222,2.216-2.939,3.935-5.144,5.156c-2.209,1.228-4.514,1.838-6.925,1.838
	s-4.722-0.61-6.926-1.838c-2.209-1.221-3.929-2.94-5.155-5.156c-1.234-2.21-1.845-4.514-1.845-6.913c0-2.423,0.623-4.753,1.87-6.982
	c1.245-2.235,2.983-3.947,5.212-5.15C649.337,21.336,651.623,20.738,653.958,20.738z"/>
<path fill="#DF232E" d="M633.033,97.283h12.218v29.721h18.988v9.687h-31.206V97.283z M682.234,97.283v10.843h6v7.98h-6v10.127
	c0,1.266,0.11,2.037,0.331,2.422c0.385,0.605,0.99,0.936,1.871,0.936c0.825,0,1.981-0.22,3.412-0.716l0.825,7.596
	c-2.752,0.551-5.229,0.881-7.595,0.881c-2.752,0-4.733-0.386-5.999-1.046c-1.321-0.716-2.257-1.762-2.862-3.192
	c-0.66-1.431-0.936-3.742-0.936-6.935v-10.072h-4.073v-7.98h4.073v-5.229L682.234,97.283z M723.511,97.283v39.407h-10.237v-4.237
	c-1.431,1.816-2.752,3.027-3.907,3.633c-1.597,0.825-3.357,1.266-5.284,1.266c-3.908,0-6.88-1.486-8.916-4.458
	c-2.037-2.973-3.082-6.55-3.082-10.788c0-4.733,1.155-8.311,3.412-10.843c2.257-2.531,5.174-3.742,8.641-3.742
	c1.707,0,3.248,0.275,4.624,0.825c1.376,0.605,2.642,1.432,3.688,2.587V97.283H723.511z M712.558,122.326
	c0-2.257-0.495-3.908-1.431-5.009s-2.146-1.651-3.577-1.651c-1.321,0-2.367,0.551-3.247,1.597c-0.826,1.045-1.267,2.807-1.267,5.338
	c0,2.313,0.44,4.019,1.321,5.119c0.881,1.046,1.981,1.596,3.302,1.596c1.376,0,2.587-0.55,3.468-1.65
	C712.063,126.563,712.558,124.803,712.558,122.326z M730.223,125.738h11.668v10.952h-11.668V125.738z"/>
</svg>
