<svg xmlns="http://www.w3.org/2000/svg" width="35" height="36" viewBox="0 0 35 36"><g><g><g><path fill="#383d47" d="M12.521 12.18l1.986 2.166V4.418a1.262 1.262 0 0 0-2.525 0v7.316c.2.123.381.273.54.446z"/></g><g><path fill="#383d47" d="M31.549 23.26v8.299h3.156V21.083a7.2 7.2 0 0 1-3.156 2.177z"/></g><g><path fill="#383d47" d="M18.294 32.821h5.05v2.525h-5.05z"/></g><g><path fill="#383d47" d="M6.933 32.821h2.525v2.525H6.933z"/></g><g><path fill="#383d47" d="M20.819 22.723c0-2.124 2.495-3.788 5.68-3.788.514 0 1.027.045 1.533.137l-2.06-3.864a2.561 2.561 0 0 1-.173-.405.631.631 0 0 1-1.193-.286V4.418a1.262 1.262 0 1 0-2.525 0v10.1a.631.631 0 0 1-1.262 0v-5.05a1.262 1.262 0 0 0-2.525 0v22.091h2.525z"/></g><g><path fill="#383d47" d="M26.548 12.1a2.512 2.512 0 0 1 1.84-.738h.005v-10.1a1.262 1.262 0 1 0-2.525 0v11.784c.128-.303.313-.578.546-.811z"/></g><g><path fill="#383d47" d="M13.876 23.26v8.299h3.156V21.083a7.2 7.2 0 0 1-3.156 2.177z"/></g><g><path fill="#383d47" d="M10.72 32.821h6.312v2.525H10.72z"/></g><g><path fill="#383d47" d="M12.613 23.262a.627.627 0 0 1-.082-.117l-1.36-2.55a6.789 6.789 0 0 0-2.345-.397c-2.395 0-4.418 1.156-4.418 2.525v8.836h8.205z"/></g><g><path fill="#383d47" d="M28.332 12.624a1.25 1.25 0 0 0-.891.37l-.134.134a1.255 1.255 0 0 0-.222 1.486l2.66 4.989.053.024-.019.039 1.293 2.425c1.655-.576 2.84-1.661 3.53-3.235l-5.338-5.823a1.252 1.252 0 0 0-.903-.41h-.029z"/></g><g><path fill="#383d47" d="M30.286 23.262a.623.623 0 0 1-.082-.117l-1.36-2.55a6.789 6.789 0 0 0-2.345-.397c-2.395 0-4.418 1.156-4.418 2.525v8.836h8.205z"/></g><g><path fill="#383d47" d="M24.606 32.821h2.525v2.525h-2.525z"/></g><g><path fill="#383d47" d="M30.195 12.18l1.985 2.166V4.418a1.262 1.262 0 0 0-2.525 0v7.316c.2.123.381.273.54.446z"/></g><g><path fill="#383d47" d="M28.393 32.821h6.312v2.525h-6.312z"/></g><g><path fill="#383d47" d="M10.66 12.624a1.25 1.25 0 0 0-.892.37l-.134.134a1.255 1.255 0 0 0-.222 1.486l2.66 4.989.053.024-.019.039 1.293 2.425c1.655-.576 2.84-1.661 3.53-3.235l-5.338-5.823a1.252 1.252 0 0 0-.903-.41h-.029z"/></g><g><path fill="#383d47" d="M8.875 12.1a2.511 2.511 0 0 1 1.84-.738h.005v-10.1a1.262 1.262 0 0 0-2.525 0v11.784c.128-.303.313-.578.546-.811z"/></g><g><path fill="#383d47" d="M3.146 22.723c0-2.124 2.495-3.788 5.68-3.788.514 0 1.027.045 1.533.137l-2.06-3.864a2.564 2.564 0 0 1-.173-.405.631.631 0 0 1-1.193-.286V4.418a1.262 1.262 0 1 0-2.525 0v10.1a.631.631 0 0 1-1.262 0v-5.05a1.262 1.262 0 1 0-2.525 0v22.091h2.525z"/></g><g><path fill="#383d47" d="M.621 32.821h5.05v2.525H.62z"/></g></g></g></svg>