<svg xmlns="http://www.w3.org/2000/svg" width="36" height="36" viewBox="0 0 36 36"><g><g><g><path fill="#383d47" d="M21.314 3.475c-.01-.01-.022-.012-.032-.021-.05-.046-.11-.075-.17-.11-.059-.036-.114-.078-.178-.1-.01-.004-.016-.012-.027-.016L11.064.052a1.03 1.03 0 0 0-1.306.663L7.83 6.584c-.178.544.12 1.128.662 1.305.526.173.812.727.67 1.255l5.925 1.934c.197-.51.761-.786 1.281-.618l1.052.344a7.684 7.684 0 0 0 2.172 6.9l.348.343a1.032 1.032 0 0 0 1.464-.01 1.035 1.035 0 0 0-.01-1.464l-.347-.343c-1.39-1.373-1.912-3.316-1.512-5.195l3.856-.575c.389-.058.71-.33.833-.703l.642-1.969a1.04 1.04 0 0 0-.257-1.059z"/></g><g><path fill="#383d47" d="M34.307 6.282h-6.021a1.035 1.035 0 1 0 0 2.071h6.021a1.035 1.035 0 1 0 0-2.07z"/></g><g><path fill="#383d47" d="M27.636 10.651a1.04 1.04 0 0 0-1.456.162 1.037 1.037 0 0 0 .162 1.456l5.178 4.142a1.037 1.037 0 0 0 1.456-.162 1.037 1.037 0 0 0-.162-1.456z"/></g><g><path fill="#383d47" d="M14.734 23.1a3.98 3.98 0 0 1-.545-.037c-2.075-.295-4.616-2.713-4.899-2.988-.883-.857-2.682-2.272-3.746-2.423-.363-.053-.859.035-1.382.166L.048 30.208c-.178.545.12 1.13.662 1.306l11.882 3.78a1.033 1.033 0 0 0 1.306-.662l1.285-3.861c.899-2.753.783-5.315.416-7.784-.291.044-.588.113-.865.113z"/></g><g><path fill="#383d47" d="M10.734 18.59c.883.856 2.682 2.272 3.746 2.422.213.03.491-.005.774-.047l-.097-.53c-.465-2.484-.896-4.86-.542-7.333l-6.387-2.085c-.35.503-.742.968-1.147 1.445-.768.904-1.545 1.853-2.116 3.118.302-.02.596-.018.87.021 2.076.295 4.616 2.714 4.9 2.99z"/></g></g></g></svg>