<svg xmlns="http://www.w3.org/2000/svg" width="36" height="36" viewBox="0 0 36 36"><g><g><g><g><g><path fill="#383d47" d="M33.404 23.1c-1.828-1.829-4.364-2.603-7.62-1.73L14.17 9.743l.154-.58a7.318 7.318 0 0 0-1.886-7.04A7.175 7.175 0 0 0 5.414.262a1.04 1.04 0 0 0-.46 1.74l2.797 2.796c.817.82.81 2.132.002 2.942-.801.803-2.148.802-2.946.002L2.01 4.945a1.04 1.04 0 0 0-1.74.462 7.199 7.199 0 0 0 1.864 7.022c1.827 1.828 4.36 2.605 7.618 1.73l11.615 11.626c-.867 3.256-.12 5.767 1.733 7.62a7.176 7.176 0 0 0 7.022 1.862 1.04 1.04 0 0 0 .46-1.74l-2.796-2.796a2.08 2.08 0 0 1-.002-2.942c.811-.807 2.155-.794 2.946 0l2.797 2.796a1.04 1.04 0 0 0 1.739-.462 7.201 7.201 0 0 0-1.862-7.023z"/></g></g></g><g><g><g><path fill="#383d47" d="M6.125 31.081a1.04 1.04 0 1 1-1.472-1.472l6.314-6.314a1.04 1.04 0 1 1 1.471 1.472zM11.137 18.5l-9.923 9.924a4.168 4.168 0 0 0 0 5.889 4.168 4.168 0 0 0 5.889 0l9.922-9.924z"/></g></g></g><g><g><g><path fill="#383d47" d="M35.22 2.1L33.426.304a1.041 1.041 0 0 0-1.272-.157l-5.52 3.312a1.04 1.04 0 0 0-.2 1.628l.439.44-7.008 6.978 2.945 2.945 7.008-6.979.618.62a1.04 1.04 0 0 0 1.629-.201l3.312-5.52c.245-.41.18-.934-.157-1.272z"/></g></g></g></g></g></svg>