<svg xmlns="http://www.w3.org/2000/svg" width="41" height="36" viewBox="0 0 41 36"><g><g><g><path fill="#383d47" d="M17.158 18.949h7.106v2.369h-7.106z"/></g><g><path fill="#383d47" d="M33.294 21.318h-6.662v1.184c0 .654-.53 1.184-1.184 1.184h-9.475c-.654 0-1.184-.53-1.184-1.184v-1.184H8.127a3.549 3.549 0 0 1-3.37-2.43L.498 6.113v25.865a3.557 3.557 0 0 0 3.553 3.553h33.32a3.557 3.557 0 0 0 3.552-3.553V6.113l-4.258 12.776a3.548 3.548 0 0 1-3.37 2.429z"/></g><g><path fill="#383d47" d="M14.79 4.737V3.553c0-.654.53-1.185 1.183-1.185h9.475c.654 0 1.184.531 1.184 1.185v1.184zM25.447 0h-9.475a3.557 3.557 0 0 0-3.553 3.553v1.184H2.536L7.003 18.14c.162.485.614.81 1.124.81h6.662v-1.184c0-.655.53-1.185 1.184-1.185h9.475c.654 0 1.184.53 1.184 1.185v1.184h6.662c.51 0 .963-.325 1.125-.81l4.467-13.402H29V3.553A3.557 3.557 0 0 0 25.448 0z"/></g></g></g></svg>