<svg xmlns="http://www.w3.org/2000/svg" width="31" height="36" viewBox="0 0 31 36"><g><g><g><path fill="#383d47" d="M18.17 11.995a.631.631 0 1 1 0-1.263.631.631 0 0 1 0 1.263zm0 6.313a.631.631 0 1 1 0-1.263.631.631 0 0 1 0 1.263zm0 6.312a.631.631 0 1 1 0-1.262.631.631 0 0 1 0 1.262zm0 6.313a.631.631 0 1 1 0-1.262.631.631 0 0 1 0 1.262zM28.078 4.97L24 3.27l-4.752 4.752a.631.631 0 0 1-.446.185h-.029a.631.631 0 0 1-.456-.227l-2.04-2.448v29.814c5.16-.089 8.439-1.246 9.47-1.668V11.995a.631.631 0 0 1 1.262 0v5.05h3.787V9.049a4.407 4.407 0 0 0-2.719-4.08z"/></g><g><path fill="#383d47" d="M27.009 18.308h3.787v1.262H27.01z"/></g><g><path fill="#383d47" d="M12.75 0l2.896 2.895L18.54 0z"/></g><g><path fill="#383d47" d="M.495 18.308h3.787v1.262H.495z"/></g><g><path fill="#383d47" d="M12.518 8.206h-.029a.631.631 0 0 1-.446-.184L7.29 3.271 3.214 4.97a4.407 4.407 0 0 0-2.72 4.079v7.996h3.788v-5.05a.631.631 0 1 1 1.263 0v21.683c1.03.422 4.308 1.58 9.47 1.668V5.532l-2.04 2.448a.631.631 0 0 1-.457.226z"/></g><g><path fill="#383d47" d="M14.791 3.827L11.188.223 8.374 2.568l4.073 4.072z"/></g><g><path fill="#383d47" d="M18.844 6.64l4.073-4.072L20.103.223 16.5 3.827z"/></g></g></g></svg>