<svg xmlns="http://www.w3.org/2000/svg" width="40" height="31" viewBox="0 0 40 31"><g><g><g><path fill="#383d47" d="M10.336 22.432l-.29 2.907c3.582.103 6.638.898 9.355 1.606 2.365.615 4.6 1.197 6.753 1.197 4.108 0 11.409-2.582 13.34-3.292-.115-1.305-.704-4.887-3.713-5.89-1.304-.435-2.428-.278-3.73-.096-2.307.323-4.923.689-9.102-2.097a9.232 9.232 0 0 1-.356-.251l-1.57 1.57a.704.704 0 0 1-.995-.995l1.493-1.493a12.757 12.757 0 0 1-2.228-3.04l-2.038.765a.704.704 0 1 1-.494-1.318l1.911-.717a22.93 22.93 0 0 1-1.023-2.845H15.6a.704.704 0 1 1 0-1.408h1.677a32.704 32.704 0 0 1-.304-1.407H2.234v7.363l5.314 3.542a6.319 6.319 0 0 1 2.788 5.9z"/></g><g><path fill="#383d47" d="M19.047 28.306c-2.83-.736-6.038-1.571-9.778-1.571H.123v4.221h2.814v-2.11a.704.704 0 0 1 1.407 0v2.11h2.814v-2.11a.704.704 0 0 1 1.407 0v2.11h2.814v-2.11c0-.39.315-.704.704-.704.06 0 1.527.008 4.392.724 1.406.352 2.573.672 3.603.954 2.587.708 4.148 1.136 6.076 1.136 3.368 0 10.718-2.41 12.89-3.15a.704.704 0 0 0 .477-.666v-.801c-2.5.906-9.264 3.21-13.367 3.21-2.334 0-4.652-.604-7.107-1.243z"/></g><g><path fill="#383d47" d="M8.936 22.292a4.915 4.915 0 0 0-2.169-4.588l-4.965-3.31L.346 17.31a2.121 2.121 0 0 0-.223.944v7.075h8.51z"/></g><g><path fill="#383d47" d="M16.542 2.814h-2.348a.704.704 0 0 1 0-1.407h2.21C16.36.836 16.335.357 16.322 0H2.233v4.221h14.498a38.792 38.792 0 0 1-.189-1.407z"/></g></g></g></svg>