<svg xmlns="http://www.w3.org/2000/svg" width="39" height="29" viewBox="0 0 39 29"><g><g><g><g><path fill="#383d47" d="M34.49 5.576c.088.3.136.617.136.941v1.327c.965.13 1.712.958 1.712 1.958v3.837a6.64 6.64 0 0 1-2.009 4.761 15.144 15.144 0 0 1-1.122 3.424c3.165-1.37 5.385-4.523 5.385-8.185V9.802c0-2.29-1.83-4.16-4.103-4.226z"/></g><g><path fill="#383d47" d="M4.385 18.4a6.64 6.64 0 0 1-2.008-4.761V9.802c0-1 .747-1.828 1.712-1.958V6.517c0-.324.048-.64.136-.941A4.233 4.233 0 0 0 .123 9.8v3.837c0 3.663 2.22 6.816 5.385 8.186A15.142 15.142 0 0 1 4.385 18.4z"/></g></g><g><g><path fill="#383d47" d="M7.741 7.359c3.405 0 6.669-1.184 9.192-3.333l.215-.186a3.337 3.337 0 0 1 2.21-.835c.814 0 1.598.297 2.208.835.072.063.143.125.216.186 2.522 2.15 5.787 3.333 9.191 3.333h1.399V5.766c0-.53-.369-.987-.886-1.1-1.931-.424-6.5-1.568-8.429-3.268A5.574 5.574 0 0 0 19.357 0a5.575 5.575 0 0 0-3.7 1.398c-1.928 1.7-6.498 2.844-8.429 3.267a1.127 1.127 0 0 0-.885 1.101V7.36H7.74z"/></g><g><path fill="#383d47" d="M28.217 15.727c-2.551.842-5.615 1.287-8.86 1.287-3.245 0-6.308-.445-8.86-1.287a1.127 1.127 0 0 1 .707-2.14c2.293.756 5.188 1.172 8.153 1.172 2.965 0 5.861-.416 8.154-1.172a1.127 1.127 0 1 1 .706 2.14zm-1.04 5.243c-2.253.853-4.957 1.303-7.82 1.303-2.862 0-5.566-.45-7.82-1.302a1.127 1.127 0 0 1 .797-2.109c1.973.746 4.467 1.157 7.023 1.157s5.05-.41 7.023-1.157a1.127 1.127 0 1 1 .797 2.108zm3.796-11.357c-3.895 0-7.688-1.345-10.653-3.87l-.245-.213a1.07 1.07 0 0 0-.718-.27c-.34 0-.578.146-.718.27-.081.072-.163.142-.245.212-2.965 2.526-6.757 3.87-10.653 3.87H6.343v5.789c0 7.187 5.827 13.014 13.014 13.014 7.188 0 13.015-5.827 13.015-13.014V9.613z"/></g></g></g></g></svg>