<svg xmlns="http://www.w3.org/2000/svg" width="41" height="31" viewBox="0 0 41 31"><g><g><g><path fill="#383d47" d="M22.272 15.074c0 .923-.751 1.675-1.675 1.675-.919 0-1.663-.744-1.675-1.723V3.35c0-.923.75-1.675 1.675-1.675.924 0 1.675.752 1.675 1.675zm15.073 3.35a16.727 16.727 0 0 0-7.288-13.8.841.841 0 0 0-.832-.066.84.84 0 0 0-.475.687l-.626 7.526c-.036.429-.4.765-.898.765h-.005a.838.838 0 0 1-.766-.905l.838-10.05a.835.835 0 0 0-.834-.906H23.48A3.34 3.34 0 0 0 20.597 0a3.34 3.34 0 0 0-2.884 1.675h-2.978a.838.838 0 0 0-.835.907l.838 10.05a.837.837 0 0 1-.195.61c-.145.17-.347.275-.64.296a.84.84 0 0 1-.833-.768l-.627-7.525a.836.836 0 0 0-1.307-.622 16.724 16.724 0 0 0-7.288 13.8v.39c-2.252.805-3.35 1.777-3.35 2.96 0 3.156 9.394 8.375 20.099 8.375s20.098-5.22 20.098-8.375c0-1.183-1.097-2.155-3.35-2.96z"/></g></g></g></svg>