<svg xmlns="http://www.w3.org/2000/svg" width="35" height="29" viewBox="0 0 35 29"><g><g><g><path fill="#383d47" d="M7.995 15.588v11.566a1.246 1.246 0 1 0 2.493 0V15.588a1.247 1.247 0 0 0-2.493 0z"/></g><g><path fill="#383d47" d="M4.083 28.415h2.744V14.682c.008-.066.02-.132.02-.199 0-5.925 4.782-10.744 10.66-10.744 5.876 0 10.658 4.82 10.658 10.744 0 .09.013.178.026.266v13.666h2.745c1.91 0 3.46-1.603 3.46-3.581v-7.162c0-1.63-1.056-3.005-2.498-3.437C31.765 6.365 25.362 0 17.507 0 9.649 0 3.245 6.365 3.114 14.238 1.674 14.671.62 16.044.62 17.674v7.16c0 1.977 1.55 3.58 3.462 3.58z"/></g><g><path fill="#383d47" d="M24.532 15.588v11.566a1.246 1.246 0 1 0 2.493 0V15.588a1.246 1.246 0 0 0-2.493 0z"/></g></g></g></svg>