<svg xmlns="http://www.w3.org/2000/svg" width="46" height="22" viewBox="0 0 46 22"><g><g><g><g><path fill="#383d47" d="M42.464 12.018a.708.708 0 0 1-1.416 0v-1.415a.708.708 0 1 1 1.416 0zm.707-4.954h-4.246a.708.708 0 0 0-.708.708v7.077c0 .39.317.708.708.708h4.246a2.126 2.126 0 0 0 2.123-2.124V9.187a2.126 2.126 0 0 0-2.123-2.123z"/></g><g><path fill="#383d47" d="M4.246 12.018a.708.708 0 0 1-1.415 0v-1.415a.708.708 0 1 1 1.415 0zM6.37 7.064H2.123A2.126 2.126 0 0 0 0 9.187v4.246a2.126 2.126 0 0 0 2.123 2.124H6.37c.39 0 .707-.317.707-.708V7.772a.708.708 0 0 0-.707-.708z"/></g><g><path fill="#383d47" d="M42.216 4.403c-.07-.06-.673-.56-1.962-1.206l-.829.829a.708.708 0 0 1-1.036-.038.725.725 0 0 1 .053-.981l.433-.433c-.52-.212-1.106-.43-1.762-.644a.708.708 0 0 0-.72.173L25.98 12.518a.708.708 0 1 1-1.001-1l9.26-9.26a.708.708 0 0 0-.349-1.192 46.154 46.154 0 0 0-5.86-.86.707.707 0 0 0-.56.206l-7.152 7.152a.708.708 0 0 1-1.001-1l5.221-5.222A.786.786 0 0 0 23.996 0h-.022a.781.781 0 0 0-.568.229L12.532 11.103a.708.708 0 1 1-1.001-1.001l8.85-8.85a.708.708 0 0 0-.53-1.208C7.72.548 3.273 4.235 3.077 4.404a.708.708 0 0 0 .46 1.244H6.37c1.172 0 2.123.951 2.123 2.124v7.077c0 1.172-.95 2.123-2.123 2.123H3.25a.295.295 0 0 0-.205.508l.005.004c.065.063.966.903 2.887 1.8.27.125.59.069.8-.142L17.104 8.775a.708.708 0 1 1 1.001 1.001l-9.447 9.447a.708.708 0 0 0 .303 1.18c1.288.367 2.602.637 3.93.81a7 7 0 0 0 .923.06c2.986 0 5.936-1.878 7.4-4.806l.003-.007a1.61 1.61 0 0 1 1.257-.894 1.577 1.577 0 0 1 1.589.865l.003.007a.508.508 0 0 0 .814.132l7.794-7.795a.708.708 0 1 1 1.001 1.001l-8.094 8.095a.515.515 0 0 0-.007.719c1.818 1.924 4.394 2.94 6.889 2.576 6.385-.934 9.609-3.537 9.743-3.648l.005-.004a.307.307 0 0 0-.196-.542h-3.09a2.123 2.123 0 0 1-2.123-2.123V7.772c0-1.173.95-2.124 2.123-2.124h2.83a.708.708 0 0 0 .461-1.245z"/></g></g></g></g></svg>