<svg xmlns="http://www.w3.org/2000/svg" width="43" height="25" viewBox="0 0 43 25"><g><g><g><path fill="#383d47" d="M27.917 17.264h3.617v7.541h-3.617z"/></g><g><path fill="#383d47" d="M15.331 17.264h10.08v7.541h-10.08z"/></g><g><path fill="#383d47" d="M40.973 5.345a9.57 9.57 0 0 0-6.818-3.617L11.886.028a10.927 10.927 0 0 0-8.143 2.845 10.695 10.695 0 0 0-3.492 7.812l-.002.28c0 3.066 1.024 6.128 3.042 9.102a10.815 10.815 0 0 0 8.965 4.728h.569v-7.52h-.569a3.302 3.302 0 0 1-2.743-1.432c-.796-1.172-1.744-2.97-1.744-4.877l.001-.189a3.246 3.246 0 0 1 1.063-2.37 3.33 3.33 0 0 1 2.511-.88l22.269 1.701a1.985 1.985 0 0 1 1.453.77c.364.462.505 1.013.408 1.593l-.664 3.984a2.027 2.027 0 0 1-.77 1.28v7.86a9.52 9.52 0 0 0 8.188-7.903l.664-3.985a9.574 9.574 0 0 0-1.92-7.482z"/></g></g></g></svg>