<svg xmlns="http://www.w3.org/2000/svg" width="23" height="36" viewBox="0 0 23 36"><g><g><path fill="#383d47" d="M16.41 19.786v9.327c0 .59-.477 1.069-1.068 1.069h-4.378a1.07 1.07 0 0 1-1.069-1.07v-9.326c0-.59.479-1.07 1.07-1.07h4.377c.59 0 1.069.48 1.069 1.07zM22.32 7.24a7.387 7.387 0 0 0-4.088-2.865L15.66 3.67a7.37 7.37 0 0 0 3.747-2.74.591.591 0 0 0-.6-.92l-7.484 1.521a.447.447 0 0 0-.359.44v1.921h-.696c-.247 0-.448.2-.448.448v.11c-4.627.12-8.356 3.913-8.356 8.569v6.659a1.779 1.779 0 0 0-.597 1.326v7.859a1.79 1.79 0 1 0 3.581 0v-7.86a1.78 1.78 0 0 0-.597-1.325v-6.66c0-3.338 2.66-6.048 5.97-6.169v.077c0 .247.2.448.447.448h.696v2.237a7.114 7.114 0 0 0-4.925 6.767v17.397c0 .968.786 1.753 1.754 1.753h10.72c.969 0 1.753-.785 1.753-1.753V16.38a7.113 7.113 0 0 0-4.924-6.767V6.863l6.376 1.296a.592.592 0 0 0 .601-.92z"/></g></g></svg>