<svg xmlns="http://www.w3.org/2000/svg" width="31" height="31" viewBox="0 0 31 31"><g><g><g><path fill="#383d47" d="M28.877 11.767H21.84a1.062 1.062 0 0 0 0 2.123h7.037v4.317H12.975L8.398 7.45h20.479zm-12.038 14.09a1.387 1.387 0 1 1 0 2.774 1.387 1.387 0 0 1 0-2.774zm10.284 0a1.387 1.387 0 1 1 0 2.774 1.387 1.387 0 0 1 0-2.774zM29.94 5.326H7.495l-1.293-3.04a1.062 1.062 0 0 0-.734-.617L1.304.689a1.061 1.061 0 1 0-.486 2.067l3.64.857 9.32 21.906a3.489 3.489 0 0 0-.455 1.724 3.515 3.515 0 0 0 3.511 3.511 3.515 3.515 0 0 0 3.232-4.882h3.823c-.18.422-.28.885-.28 1.371a3.515 3.515 0 0 0 3.512 3.511 3.515 3.515 0 0 0 3.51-3.51 3.515 3.515 0 0 0-3.51-3.512l-11.789.017-1.454-3.418h16.06c.587 0 1.062-.476 1.062-1.062V6.387c0-.586-.475-1.061-1.061-1.061z"/></g></g></g></svg>