<svg xmlns="http://www.w3.org/2000/svg" width="21" height="20" viewBox="0 0 21 20"><g><g><path fill="#dadada" d="M20.166 6.738h-6.882L11.192.496A.738.738 0 0 0 10.481 0a.738.738 0 0 0-.711.496L7.678 6.738H.748A.75.75 0 0 0 0 7.486a.55.55 0 0 0 .014.127c.01.163.084.346.314.528l5.656 3.987-2.17 6.312a.75.75 0 0 0 .257.842c.135.098.262.183.42.183.155 0 .338-.08.469-.169l5.521-3.935 5.521 3.935a.877.877 0 0 0 .468.169c.16 0 .286-.08.417-.183a.742.742 0 0 0 .257-.842l-2.171-6.312 5.61-4.024.136-.117c.121-.131.243-.309.243-.5 0-.412-.384-.75-.795-.75z"/></g></g></svg>