<svg xmlns="http://www.w3.org/2000/svg" width="25" height="24" viewBox="0 0 25 24"><g><g><g><path fill="#fff" d="M22.502 9.188h-5.41a.816.816 0 0 0 0 1.633h5.41v3.319H10.276L6.758 5.869h15.744zm-9.254 10.833a1.067 1.067 0 1 1 0 2.133 1.067 1.067 0 0 1 0-2.133zm7.906 0a1.067 1.067 0 1 1 0 2.133 1.067 1.067 0 0 1 0-2.133zm2.165-15.785H6.063L5.07 1.9a.816.816 0 0 0-.564-.475l-3.2-.753A.816.816 0 1 0 .93 2.26l2.799.658 7.165 16.842c-.222.392-.35.844-.35 1.326 0 1.488 1.211 2.7 2.7 2.7a2.702 2.702 0 0 0 2.484-3.754h2.94a2.702 2.702 0 0 0 2.485 3.753c1.488 0 2.698-1.21 2.698-2.7 0-1.488-1.21-2.698-2.699-2.698l-9.063.012-1.118-2.628h12.348c.45 0 .816-.365.816-.816V5.052a.816.816 0 0 0-.816-.816z"/></g></g></g></svg>