<svg xmlns="http://www.w3.org/2000/svg" width="64.361" height="48.271" viewBox="0 0 64.361 48.271"><defs><style>.a{fill:#8cb1da;}</style></defs><g transform="translate(0)"><g transform="translate(0 0)"><path class="a" d="M59,94.124V93.5a26.782,26.782,0,0,0-11.67-22.1,1.34,1.34,0,0,0-2.093,1l-1,12.051a1.371,1.371,0,0,1-1.438,1.224h-.008a1.339,1.339,0,0,1-1.226-1.448L42.9,68.134a1.34,1.34,0,0,0-1.336-1.452H36.8a5.316,5.316,0,0,0-9.235,0H22.795a1.34,1.34,0,0,0-1.336,1.452L22.8,84.224a1.34,1.34,0,0,1-.312.978,1.4,1.4,0,0,1-1.027.474,1.346,1.346,0,0,1-1.333-1.23l-1-12.048a1.34,1.34,0,0,0-2.093-1A26.777,26.777,0,0,0,5.363,93.5v.625C1.757,95.412,0,96.968,0,98.862c0,5.052,15.04,13.409,32.181,13.409s32.181-8.357,32.181-13.409C64.361,96.968,62.6,95.412,59,94.124ZM34.862,88.136a2.684,2.684,0,0,1-2.682,2.682A2.712,2.712,0,0,1,29.5,88.059v-18.7a2.682,2.682,0,1,1,5.363,0Z" transform="translate(0 -64)"/></g></g></svg>