<svg xmlns="http://www.w3.org/2000/svg" width="54.079" height="45.497" viewBox="0 0 54.079 45.497"><defs><style>.a{fill:#8cb1da;}</style></defs><g transform="translate(0)"><g transform="translate(0 0)"><path class="a" d="M62.743,146.828v18.52a2,2,0,1,0,3.991,0v-18.52a2,2,0,1,0-3.991,0Z" transform="translate(-50.936 -121.869)"/><path class="a" d="M5.543,68.3H9.937V46.312a2.792,2.792,0,0,0,.031-.319,17.067,17.067,0,1,1,34.133,0,2.777,2.777,0,0,0,.043.426V68.3h4.395a5.64,5.64,0,0,0,5.54-5.734V51.1a5.711,5.711,0,0,0-4-5.5,23.045,23.045,0,0,0-46.087,0A5.705,5.705,0,0,0,0,51.1V62.567A5.642,5.642,0,0,0,5.543,68.3Z" transform="translate(0 -22.804)"/><path class="a" d="M203.454,146.828v18.52a2,2,0,1,0,3.991,0v-18.52a2,2,0,1,0-3.991,0Z" transform="translate(-165.169 -121.869)"/></g></g></svg>