<svg xmlns="http://www.w3.org/2000/svg" width="68.484" height="39.716" viewBox="0 0 68.484 39.716"><defs><style>.a{fill:#8cb1da;}</style></defs><g transform="translate(0)"><path class="a" d="M331.2,314.2h5.791v12.074H331.2Z" transform="translate(-286.902 -286.555)"/><path class="a" d="M180.539,314.2h16.14v12.074h-16.14Z" transform="translate(-156.39 -286.555)"/><path class="a" d="M65.2,116.094A15.323,15.323,0,0,0,54.288,110.3l-35.656-2.723a17.5,17.5,0,0,0-13.038,4.556A17.125,17.125,0,0,0,0,124.644q0,.223,0,.449a25.824,25.824,0,0,0,4.871,14.572,17.316,17.316,0,0,0,14.354,7.571h.911v-12.04h-.911a5.287,5.287,0,0,1-4.392-2.293,14.612,14.612,0,0,1-2.793-7.809c0-.1,0-.2,0-.3a5.2,5.2,0,0,1,1.7-3.794,5.333,5.333,0,0,1,4.02-1.409l35.656,2.723a3.256,3.256,0,0,1,2.98,3.783l-1.063,6.379a3.246,3.246,0,0,1-1.232,2.05v12.584a15.243,15.243,0,0,0,13.109-12.655l1.063-6.38A15.33,15.33,0,0,0,65.2,116.094Z" transform="translate(0 -107.535)"/></g></svg>