<svg xmlns="http://www.w3.org/2000/svg" width="56.594" height="56.594" viewBox="0 0 56.594 56.594"><defs><style>.a{fill:#8cb1da;}</style></defs><path class="a" d="M134.4,5.564c-.015-.015-.036-.019-.052-.034a1.619,1.619,0,0,0-.271-.177,1.642,1.642,0,0,0-.285-.16c-.016-.006-.027-.019-.043-.024L117.983.084a1.65,1.65,0,0,0-2.09,1.061l-3.088,9.4a1.657,1.657,0,0,0,1.061,2.09,1.652,1.652,0,0,1,1.072,2.008l9.488,3.1a1.663,1.663,0,0,1,2.051-.99l1.685.551a12.3,12.3,0,0,0,3.477,11.049l.557.549a1.658,1.658,0,0,0,2.328-2.361l-.555-.549a8.959,8.959,0,0,1-2.421-8.317l6.175-.922a1.661,1.661,0,0,0,1.333-1.125l1.028-3.153a1.664,1.664,0,0,0-.411-1.7Z" transform="translate(-100.263 -0.001)"/><path class="a" d="M406.078,91h-9.641a1.658,1.658,0,0,0,0,3.316h9.641a1.658,1.658,0,0,0,0-3.316Z" transform="translate(-351.142 -80.941)"/><path class="a" d="M378.693,151.369a1.659,1.659,0,1,0-2.073,2.591l8.29,6.632A1.659,1.659,0,0,0,386.983,158Z" transform="translate(-334.437 -134.316)"/><path class="a" d="M23.6,264.212a6.371,6.371,0,0,1-.873-.058c-3.323-.473-7.39-4.344-7.843-4.785-1.414-1.371-4.294-3.638-6-3.88a6.308,6.308,0,0,0-2.213.265L.083,275.595a1.657,1.657,0,0,0,1.061,2.09l19.024,6.053a1.656,1.656,0,0,0,2.09-1.061l2.058-6.183a26.3,26.3,0,0,0,.667-12.463A9.72,9.72,0,0,1,23.6,264.212Z" transform="translate(-0.001 -227.227)"/><path class="a" d="M81.208,171.7c1.414,1.37,4.294,3.637,6,3.878a4.836,4.836,0,0,0,1.239-.076c-.052-.283-.1-.567-.156-.849-.744-3.978-1.434-7.782-.868-11.742L77.2,159.577c-.559.806-1.187,1.551-1.837,2.315a20.762,20.762,0,0,0-3.387,4.992,6.814,6.814,0,0,1,1.394.034c3.323.473,7.39,4.346,7.843,4.786Z" transform="translate(-64.016 -141.938)"/></svg>