<svg xmlns="http://www.w3.org/2000/svg" width="63.083" height="49.565" viewBox="0 0 63.083 49.565"><defs><style>.a{fill:#8cb1da;}</style></defs><path class="a" d="M68.973,170.905l-.465,4.654a64.818,64.818,0,0,1,14.981,2.571c3.787.986,7.364,1.917,10.812,1.917,6.578,0,18.268-4.134,21.359-5.271-.184-2.088-1.126-7.825-5.944-9.431a12.232,12.232,0,0,0-5.972-.152c-3.695.516-7.882,1.1-14.574-3.358-.193-.128-.382-.264-.57-.4l-2.515,2.514a1.127,1.127,0,0,1-1.593-1.593l2.391-2.391a20.426,20.426,0,0,1-3.568-4.866l-3.263,1.224a1.127,1.127,0,0,1-.791-2.11l3.061-1.148a36.712,36.712,0,0,1-1.639-4.556H77.4a1.126,1.126,0,0,1,0-2.253h2.685c-.092-.385-.181-.774-.266-1.172q-.117-.546-.22-1.081H56v11.788l8.509,5.672A10.117,10.117,0,0,1,68.973,170.905Z" transform="translate(-52.621 -134.988)"/><path class="a" d="M62.3,382.65a60.093,60.093,0,0,0-15.656-2.516H32v6.759h4.506v-3.379a1.126,1.126,0,1,1,2.253,0v3.379h4.506v-3.379a1.126,1.126,0,1,1,2.253,0v3.379h4.506v-3.379a1.127,1.127,0,0,1,1.126-1.126,32.4,32.4,0,0,1,7.032,1.16c2.252.563,4.12,1.075,5.768,1.526,4.143,1.135,6.643,1.82,9.729,1.82,5.393,0,17.161-3.86,20.639-5.043a1.127,1.127,0,0,0,.764-1.067V379.5c-4,1.45-14.833,5.14-21.4,5.14C69.943,384.64,66.231,383.673,62.3,382.65Z" transform="translate(-32 -337.328)"/><path class="a" d="M46.111,256.328a7.869,7.869,0,0,0-3.472-7.346l-7.949-5.3-2.333,4.666A3.4,3.4,0,0,0,32,249.86v11.328H45.625Z" transform="translate(-32 -220.635)"/><path class="a" d="M78.91,84.506H75.15a1.126,1.126,0,1,1,0-2.253h3.541c-.073-.915-.113-1.682-.134-2.253H56v6.759H79.213C79.092,85.969,78.992,85.214,78.91,84.506Z" transform="translate(-52.621 -80)"/></svg>