<svg xmlns="http://www.w3.org/2000/svg" width="56.886" height="56.888" viewBox="0 0 56.886 56.888"><defs><style>.a{fill:#8cb1da;}</style></defs><g transform="translate(0)"><g transform="translate(0.025 0)"><path class="a" d="M53.7,36.988c-2.926-2.929-6.987-4.169-12.2-2.772L22.9,15.6l.246-.929A11.717,11.717,0,0,0,20.127,3.4,11.488,11.488,0,0,0,8.881.42a1.665,1.665,0,0,0-.736,2.785l4.477,4.477a3.33,3.33,0,0,1,0,4.71,3.37,3.37,0,0,1-4.717,0L3.431,7.918a1.665,1.665,0,0,0-2.785.74A11.527,11.527,0,0,0,3.628,19.9c2.925,2.927,6.98,4.172,12.2,2.772l18.6,18.614c-1.388,5.213-.191,9.234,2.775,12.2a11.49,11.49,0,0,0,11.243,2.981,1.665,1.665,0,0,0,.736-2.786L44.7,49.206a3.33,3.33,0,0,1,0-4.71,3.375,3.375,0,0,1,4.717,0l4.479,4.477a1.665,1.665,0,0,0,2.785-.74A11.53,11.53,0,0,0,53.7,36.988Z" transform="translate(-0.231 0)"/></g><g transform="translate(0 29.62)"><path class="a" d="M17.846,266.584,1.958,282.474a6.667,6.667,0,0,0,9.428,9.428l15.887-15.889ZM9.821,286.73a1.666,1.666,0,1,1-2.357-2.357l10.109-10.111a1.666,1.666,0,0,1,2.357,2.357Z" transform="translate(-0.008 -266.584)"/></g><g transform="translate(31.813 0)"><path class="a" d="M310.914,3.361,308.041.488a1.667,1.667,0,0,0-2.036-.251l-8.838,5.3a1.667,1.667,0,0,0-.321,2.608l.7.7-11.22,11.174,4.715,4.715,11.22-11.174.991.991a1.667,1.667,0,0,0,2.608-.321l5.3-8.838A1.667,1.667,0,0,0,310.914,3.361Z" transform="translate(-286.329 0)"/></g></g></svg>