<svg xmlns="http://www.w3.org/2000/svg" width="64.726" height="56.888" viewBox="0 0 64.726 56.888"><defs><style>.a{fill:#8cb1da;}</style></defs><g transform="translate(0)"><path class="a" d="M211,240h11.378v3.793H211Zm0,0" transform="translate(-184.326 -209.66)"/><path class="a" d="M52.512,101.757H41.845v1.9a1.9,1.9,0,0,1-1.9,1.9H24.778a1.9,1.9,0,0,1-1.9-1.9v-1.9H12.215a5.682,5.682,0,0,1-5.4-3.889L0,77.41v41.413a5.7,5.7,0,0,0,5.689,5.689H59.037a5.7,5.7,0,0,0,5.689-5.689V77.412L57.908,97.868A5.681,5.681,0,0,1,52.512,101.757Zm0,0" transform="translate(0 -67.624)"/><path class="a" d="M62.494,0H47.324a5.7,5.7,0,0,0-5.689,5.689v1.9H25.809l7.152,21.459a1.9,1.9,0,0,0,1.8,1.3H45.428v-1.9a1.9,1.9,0,0,1,1.9-1.9h15.17a1.9,1.9,0,0,1,1.9,1.9v1.9H75.057a1.9,1.9,0,0,0,1.8-1.3L84.01,7.585H68.183v-1.9A5.7,5.7,0,0,0,62.494,0ZM45.428,7.585v-1.9a1.9,1.9,0,0,1,1.9-1.9h15.17a1.9,1.9,0,0,1,1.9,1.9v1.9Zm0,0" transform="translate(-22.546)"/></g></svg>