<svg xmlns="http://www.w3.org/2000/svg" width="54.573" height="56.594" viewBox="0 0 54.573 56.594"><defs><style>.a{fill:#8cb1da;}</style></defs><path class="a" d="M184.863,86.449l3.179,3.468v-15.9a2.021,2.021,0,0,0-4.042,0V85.735a4.068,4.068,0,0,1,.863.714Z" transform="translate(-165.809 -66.947)"/><path class="a" d="M432,302.708V316h5.053V299.223A11.529,11.529,0,0,1,432,302.708Z" transform="translate(-382.48 -265.466)"/><path class="a" d="M264,448h8.085v4.042H264Z" transform="translate(-235.703 -395.448)"/><path class="a" d="M120,448h4.042v4.042H120Z" transform="translate(-109.894 -395.448)"/><path class="a" d="M268.042,103.329c0-3.4,4-6.064,9.1-6.064a13.7,13.7,0,0,1,2.453.218l-3.3-6.186a4.1,4.1,0,0,1-.276-.648,1.011,1.011,0,0,1-1.911-.458V74.021a2.021,2.021,0,1,0-4.042,0v16.17a1.011,1.011,0,0,1-2.021,0V82.106a2.021,2.021,0,1,0-4.042,0v35.371h4.042Z" transform="translate(-235.703 -66.947)"/><path class="a" d="M361.089,51.375a4.022,4.022,0,0,1,2.946-1.183h.007V34.021a2.021,2.021,0,1,0-4.042,0V52.889a4.062,4.062,0,0,1,.874-1.3Z" transform="translate(-319.576 -32)"/><path class="a" d="M208,302.708V316h5.053V299.223A11.529,11.529,0,0,1,208,302.708Z" transform="translate(-186.777 -265.466)"/><path class="a" d="M168,448h10.106v4.042H168Z" transform="translate(-151.83 -395.448)"/><path class="a" d="M101.138,292.9a1,1,0,0,1-.133-.188l-2.177-4.082A10.87,10.87,0,0,0,95.074,288C91.24,288,88,289.849,88,292.04v14.149h13.138Z" transform="translate(-81.936 -255.658)"/><path class="a" d="M375.763,192a2,2,0,0,0-1.427.592l-.215.215a2.01,2.01,0,0,0-.354,2.38l4.26,7.988.083.038-.03.063,2.07,3.882a9.23,9.23,0,0,0,5.65-5.179l-8.546-9.323a2,2,0,0,0-1.447-.656Z" transform="translate(-331.393 -171.788)"/><path class="a" d="M325.138,292.9a1,1,0,0,1-.133-.188l-2.177-4.082a10.87,10.87,0,0,0-3.754-.636c-3.835,0-7.074,1.851-7.074,4.042v14.149h13.138Z" transform="translate(-277.639 -255.658)"/><path class="a" d="M344,448h4.042v4.042H344Z" transform="translate(-305.597 -395.448)"/><path class="a" d="M408.864,86.449l3.179,3.468v-15.9a2.021,2.021,0,1,0-4.042,0V85.735a4.068,4.068,0,0,1,.863.714Z" transform="translate(-361.512 -66.947)"/><path class="a" d="M392,448h10.106v4.042H392Z" transform="translate(-347.533 -395.448)"/><path class="a" d="M151.763,192a2,2,0,0,0-1.427.592l-.215.215a2.01,2.01,0,0,0-.354,2.38l4.26,7.988.083.038-.03.063,2.07,3.882a9.23,9.23,0,0,0,5.65-5.179l-8.545-9.323a2,2,0,0,0-1.447-.656Z" transform="translate(-135.69 -171.788)"/><path class="a" d="M137.089,51.375a4.021,4.021,0,0,1,2.946-1.183h.007V34.021a2.021,2.021,0,1,0-4.042,0V52.889a4.063,4.063,0,0,1,.874-1.3Z" transform="translate(-123.873 -32)"/><path class="a" d="M44.042,103.329c0-3.4,4-6.064,9.1-6.064a13.7,13.7,0,0,1,2.453.218l-3.3-6.186a4.105,4.105,0,0,1-.276-.648,1.011,1.011,0,0,1-1.911-.458V74.021a2.021,2.021,0,1,0-4.042,0v16.17a1.011,1.011,0,1,1-2.021,0V82.106a2.021,2.021,0,0,0-4.042,0v35.371h4.042Z" transform="translate(-40 -66.947)"/><path class="a" d="M40,448h8.085v4.042H40Z" transform="translate(-40 -395.448)"/></svg>