<svg xmlns="http://www.w3.org/2000/svg" width="48.518" height="56.594" viewBox="0 0 48.518 56.594"><defs><style>.a{fill:#8cb1da;}</style></defs><g transform="translate(0)"><path class="a" d="M282.894,76.166l-6.528-2.72-7.608,7.608a1.011,1.011,0,0,1-.715.3H268a1.011,1.011,0,0,1-.731-.363L264,77.066V124.8a42.971,42.971,0,0,0,15.162-2.672V87.414a1.011,1.011,0,1,1,2.022,0V95.5h6.065V82.7A7.057,7.057,0,0,0,282.894,76.166Zm-15.862,41.572a1.011,1.011,0,1,1,1.011-1.011A1.011,1.011,0,0,1,267.032,117.738Zm0-10.108a1.011,1.011,0,1,1,1.011-1.011A1.011,1.011,0,0,1,267.032,107.63Zm0-10.108a1.011,1.011,0,1,1,1.011-1.011A1.011,1.011,0,0,1,267.032,97.522Zm0-10.108a1.011,1.011,0,1,1,1.011-1.011A1.011,1.011,0,0,1,267.032,87.414Z" transform="translate(-238.73 -68.209)"/><path class="a" d="M400,264h6.065v2.022H400Z" transform="translate(-357.547 -234.687)"/><path class="a" d="M219.314,32l4.635,4.635L228.584,32Z" transform="translate(-199.69 -32)"/><path class="a" d="M64,264h6.065v2.022H64Z" transform="translate(-64 -234.687)"/><path class="a" d="M83.251,81.349H83.2a1.011,1.011,0,0,1-.715-.3l-7.608-7.608-6.528,2.72A7.057,7.057,0,0,0,64,82.7V95.5h6.065V87.414a1.011,1.011,0,1,1,2.022,0v34.718A42.972,42.972,0,0,0,87.248,124.8V77.066l-3.267,3.92A1.011,1.011,0,0,1,83.251,81.349Z" transform="translate(-64 -68.209)"/><path class="a" d="M174.126,40.593l-5.77-5.77-4.505,3.754,6.521,6.521Z" transform="translate(-151.235 -34.466)"/><path class="a" d="M270.577,45.1l6.521-6.521-4.505-3.754-5.77,5.77Z" transform="translate(-241.197 -34.466)"/></g></svg>