<svg xmlns="http://www.w3.org/2000/svg" width="248" height="124" viewBox="0 0 248 124"><g><g><path fill="#383d47" d="M0 124V0h248v124z"/></g><g><g><path fill="#f3f4f8" d="M61.92 63.309c0 6.898 7.367 22.43 12.951 9.948 1.643-3.613 2.91-7.883 3.707-12.2.47-2.582 2.347-12.624 1.22-14.266l-1.22-.376c-.093 0-2.487 1.408-2.862 2.816-1.22 4.505-1.69 12.013-5.209 16.471-1.22-3.285-1.83-25.997-13.421-19.85-1.97 1.126-1.736 1.36-2.346 3.754-1.502 5.631-4.411 21.305-1.549 25.481 1.455 2.112 4.599 2.675 6.476-2.815.845-2.534 1.173-4.928 2.206-8.165.187-.798.281-.282.046-.798"/></g><g><path fill="#f3f4f8" d="M135.031 63.59c.235-2.205 1.173-4.598 2.159-6.382.892-1.69 1.736-3.895 3.144-4.505 1.22 1.784.61 7.133.61 9.667zm-5.725-.563c-2.252.141-1.783.516-3.19 1.361-.47 5.162 1.83 1.173.844 7.04-.376 2.44-1.173 5.912.188 8.024 1.783.281 1.924-.939 2.815-2.488.798-1.407 1.267-2.627 1.83-4.176.798-2.112.517-2.253 3.098-2.487 8.446-.845 3.378 4.082 5.396 6.663 1.502 1.408 3.66-.938 4.505-1.736 2.91-2.628.798-2.112 2.487-5.209.986-1.83 2.347-2.064 3.238-4.082 1.455-3.238-1.126-4.552-1.83-5.256.094-3.52.47-9.432-.47-12.576-1.313-4.224-6.1-3.802-8.68-1.361-2.112 1.97.234.75-3.567 3.05-3.191 1.97-5.256 9.526-6.664 13.233z"/></g><g><path fill="#f3f4f8" d="M87.73 63.496c.28-2.862 3.19-10.605 5.396-10.84.891 1.549.75 7.603.422 9.714-2.205.141-3.379 1.08-5.819 1.126zm-5.538-.516c-6.148.516-2.065 4.411-2.065 6.335.047 3.426-1.924 6.195-.375 9.996 1.595.234 2.158-.423 3.52-3.567.61-1.407 1.266-3.707 1.97-5.115 2.769-.61 4.927-.797 7.414.423.094 1.877-.516 5.302.845 6.194 1.455.704 5.068-2.863 5.444-3.754.657-1.408-.047-2.253 1.079-3.895 1.032-1.455 4.411-3.332 3.238-6.804-.892-2.628-1.877-.845-1.924-3.426-.047-3.52.422-6.476-.188-10.042-.75-4.88-5.115-6.382-9.104-2.347-1.501 1.502-.703 1.361-2.862 2.44-3.473 1.737-5.819 8.87-6.992 13.562z"/></g><g><path fill="#f3f4f8" d="M112.929 58.381c-.141 4.693-3.801 16.519-1.22 20.273 1.548.234 1.877-.423 2.768-1.22 2.253-1.877 3.848-3.567 5.397-6.57 2.206-4.317 2.91-8.212 2.487-13.796 2.159-.141 3.473-.047 5.397-.892 1.032-3.238-.798-6.57-3.99-8.26-2.909-1.548-7.46-1.97-11.074-1.923-4.927.047-7.461.61-6.523 6.194.657 3.707 2.816 5.96 6.758 6.194"/></g><g><path fill="#f3f4f8" d="M180.456 70.113l-.047-3.285c-4.41.845-4.551 9.292-.61 9.855 1.127-1.173.564-1.549.986-3.003 1.595.703 1.032 2.158 1.736 3.52 3.332.468 2.863-5.632 3.567-7.697.469-1.408.938-2.159.281-3.52-4.411-1.079-1.97 5.397-5.913 4.13"/></g><g><path fill="#f3f4f8" d="M166.66 66.03c3.707-2.064 12.858 3.614 7.274 7.227-1.455.892-2.77.986-4.6 1.267-.14 1.502 0 1.924-1.172 2.769-1.924-.845-1.455-2.487-1.455-4.599 0-2.252.845-2.815 2.065-3.801l-2.018-.657-.094-2.205zm2.3 2.957zm.046 2.628c.516.094.939.094 1.314 0 .235-.047 1.033-.282 1.126-.751.047-.892-1.173-1.69-2.487-1.877 0 .892.047 1.783.047 2.628z"/></g><g><path fill="#f3f4f8" d="M157.603 65.702c8.025-.939 13.89 7.837 2.393 8.728-.094 1.69.141 2.3-1.501 2.77-1.174-.893-2.394-5.82.985-8.26l-1.97-.845c-.095-.563-.189-.797-.142-1.408.047-.61.141-.797.235-.985zm2.065 3.285c0 .892.047 1.783.047 2.628.516.094.938.094 1.314 0 .234-.047 1.032-.282 1.126-.751.047-.892-1.173-1.69-2.487-1.877z"/></g><g><path fill="#f3f4f8" d="M195.801 68.987c-2.111-.094-1.22.235-2.721 2.393-.657.986-1.408 1.83-3.004 1.924-.281-2.58.282-1.548.845-3.52 1.502-5.349-5.49-5.677-4.036 3.567.47 2.863 3.426 4.974 6.382 2.816 1.408-1.033 3.426-4.74 2.534-7.18"/></g></g></g></svg>