<svg xmlns="http://www.w3.org/2000/svg" width="61.595" height="45.497" viewBox="0 0 61.595 45.497"><defs><style>.a{fill:#8cb1da;}</style></defs><g transform="translate(0 8.927)"><path class="a" d="M442.384,141.114a5.334,5.334,0,0,1,.219,1.508v2.125a3.167,3.167,0,0,1,2.741,3.134v6.144a10.632,10.632,0,0,1-3.216,7.624,24.249,24.249,0,0,1-1.8,5.482,14.294,14.294,0,0,0,8.622-13.106v-6.144A6.778,6.778,0,0,0,442.384,141.114Z" transform="translate(-387.358 -141.114)"/><path class="a" d="M6.825,161.649a10.632,10.632,0,0,1-3.216-7.624v-6.144a3.167,3.167,0,0,1,2.741-3.134v-2.125a5.333,5.333,0,0,1,.219-1.508A6.778,6.778,0,0,0,0,147.881v6.144a14.294,14.294,0,0,0,8.622,13.106,24.244,24.244,0,0,1-1.8-5.482Z" transform="translate(0 -141.115)"/></g><g transform="translate(9.959 0)"><path class="a" d="M85.022,78.689a22.677,22.677,0,0,0,14.717-5.336q.174-.148.344-.3a5.352,5.352,0,0,1,7.075,0q.172.152.345.3a22.677,22.677,0,0,0,14.717,5.336h2.239v-2.55a1.8,1.8,0,0,0-1.418-1.763c-3.092-.678-10.409-2.509-13.5-5.232a8.961,8.961,0,0,0-11.849,0c-3.087,2.722-10.4,4.554-13.5,5.232a1.8,1.8,0,0,0-1.418,1.763v2.55h2.239Z" transform="translate(-82.783 -66.907)"/><path class="a" d="M122.221,143.877a26.281,26.281,0,0,1-17.057-6.2q-.2-.168-.392-.34a1.743,1.743,0,0,0-2.3,0q-.195.172-.392.34a26.281,26.281,0,0,1-17.057,6.2H82.784v9.267a20.838,20.838,0,0,0,41.677,0v-9.267Zm-6.078,18.185a38.632,38.632,0,0,1-25.042,0,1.8,1.8,0,1,1,1.276-3.376,35.061,35.061,0,0,0,22.49,0,1.8,1.8,0,0,1,1.276,3.376Zm1.664-8.4a46.051,46.051,0,0,1-14.186,2.06,46.054,46.054,0,0,1-14.185-2.059,1.8,1.8,0,1,1,1.131-3.427,46.318,46.318,0,0,0,26.11,0,1.8,1.8,0,0,1,1.131,3.427Z" transform="translate(-82.784 -128.486)"/></g></svg>