<svg xmlns="http://www.w3.org/2000/svg" width="72.523" height="34.061" viewBox="0 0 72.523 34.061"><defs><style>.a{fill:#8cb1da;}</style></defs><g transform="translate(0)"><g transform="translate(0 0)"><path class="a" d="M439.932,215.685h-6.8A1.133,1.133,0,0,0,432,216.818V228.15a1.133,1.133,0,0,0,1.133,1.133h6.8a3.4,3.4,0,0,0,3.4-3.4v-6.8A3.4,3.4,0,0,0,439.932,215.685Zm-1.133,7.932a1.133,1.133,0,0,1-2.266,0v-2.266a1.133,1.133,0,0,1,2.266,0Z" transform="translate(-370.809 -204.375)"/><path class="a" d="M10.2,215.685H3.4a3.4,3.4,0,0,0-3.4,3.4v6.8a3.4,3.4,0,0,0,3.4,3.4h6.8a1.133,1.133,0,0,0,1.133-1.133V216.818A1.133,1.133,0,0,0,10.2,215.685Zm-3.4,7.932a1.133,1.133,0,0,1-2.266,0v-2.266a1.133,1.133,0,0,1,2.266,0Z" transform="translate(0 -204.375)"/><path class="a" d="M95.062,142.888a16.414,16.414,0,0,0-3.142-1.931l-1.327,1.327a1.133,1.133,0,0,1-1.659-.06,1.162,1.162,0,0,1,.085-1.572l.693-.693c-.832-.34-1.771-.688-2.822-1.031a1.133,1.133,0,0,0-1.151.277L69.063,155.881a1.133,1.133,0,0,1-1.6-1.6l14.826-14.826a1.133,1.133,0,0,0-.558-1.908,73.9,73.9,0,0,0-9.383-1.376,1.132,1.132,0,0,0-.9.328L60,147.949a1.133,1.133,0,1,1-1.6-1.6l8.36-8.36a1.259,1.259,0,0,0-.866-2.149h-.036a1.251,1.251,0,0,0-.909.366L47.533,153.615a1.133,1.133,0,0,1-1.6-1.6l14.17-14.17a1.133,1.133,0,0,0-.85-1.934c-19.421.807-26.54,6.711-26.854,6.979a1.133,1.133,0,0,0,.737,1.994h4.533a3.4,3.4,0,0,1,3.4,3.4v11.332a3.4,3.4,0,0,1-3.4,3.4H32.671a.473.473,0,0,0-.328.813l.007.007a18.206,18.206,0,0,0,4.623,2.882,1.134,1.134,0,0,0,1.281-.226l16.6-16.6a1.133,1.133,0,1,1,1.6,1.6L41.33,166.616a1.133,1.133,0,0,0,.485,1.89,43.386,43.386,0,0,0,6.294,1.3,11.2,11.2,0,0,0,1.477.1,13.629,13.629,0,0,0,11.849-7.7l.005-.01a2.579,2.579,0,0,1,2.011-1.432A2.525,2.525,0,0,1,66,162.146l.005.01a.814.814,0,0,0,1.3.211l12.48-12.48a1.133,1.133,0,1,1,1.6,1.6L68.426,164.451a.825.825,0,0,0-.011,1.151,12.84,12.84,0,0,0,11.03,4.125c10.224-1.5,15.385-5.664,15.6-5.84l.008-.007a.491.491,0,0,0-.314-.868H89.792a3.4,3.4,0,0,1-3.4-3.4V148.281a3.4,3.4,0,0,1,3.4-3.4h4.533a1.133,1.133,0,0,0,.737-1.994Z" transform="translate(-27.467 -135.837)"/></g></g></svg>