<svg xmlns="http://www.w3.org/2000/svg" width="34.522" height="56.888" viewBox="0 0 34.522 56.888"><defs><style>.a{fill:#8cb1da;}</style></defs><path class="a" d="M131.561,11.593a11.827,11.827,0,0,0-6.545-4.587L120.9,5.879a11.8,11.8,0,0,0,6-4.388.944.944,0,0,0-.96-1.472L113.955,2.454a.716.716,0,0,0-.575.7V6.235h-1.114a.717.717,0,0,0-.717.717v.176a13.746,13.746,0,0,0-13.38,13.72V31.51a2.848,2.848,0,0,0-.956,2.123V46.216a2.867,2.867,0,0,0,5.735,0V33.633a2.849,2.849,0,0,0-.956-2.123V20.848a9.906,9.906,0,0,1,9.557-9.878v.123a.717.717,0,0,0,.717.717h1.115v3.582a11.391,11.391,0,0,0-7.885,10.834V54.082a2.808,2.808,0,0,0,2.808,2.807h17.164a2.807,2.807,0,0,0,2.808-2.807V26.226a11.388,11.388,0,0,0-7.885-10.834v-4.4L130.6,13.065a.947.947,0,0,0,.963-1.472ZM122.1,31.681V46.615a1.711,1.711,0,0,1-1.712,1.712H113.38a1.712,1.712,0,0,1-1.712-1.712V31.681a1.712,1.712,0,0,1,1.712-1.712h7.009A1.712,1.712,0,0,1,122.1,31.681Z" transform="translate(-97.212 -0.001)"/></svg>