<?xml version="1.0" encoding="utf-8"?>
<!-- Generator: Adobe Illustrator 25.2.1, SVG Export Plug-In . SVG Version: 6.00 Build 0)  -->
<svg version="1.1" id="Layer_1" width="15px" height="15px" xmlns="http://www.w3.org/2000/svg" xmlns:xlink="http://www.w3.org/1999/xlink" x="0px" y="0px"
	 viewBox="0 0 26.2 23.1" style="enable-background:new 0 0 26.2 23.1;" xml:space="preserve">
<style type="text/css">
	.st0{fill:none;stroke:#383D47;stroke-width:2;stroke-linecap:round;stroke-linejoin:round;}
</style>
<path class="st0" d="M23.4,2.9c-2.5-2.5-6.5-2.5-9,0c0,0,0,0,0,0l-1.2,1.2l-1.2-1.2c-2.4-2.5-6.5-2.6-9-0.2s-2.6,6.5-0.2,9
	c0.1,0.1,0.1,0.1,0.2,0.2l1.2,1.2l9,9l9-9l1.2-1.2C25.8,9.4,25.8,5.4,23.4,2.9C23.4,2.9,23.4,2.9,23.4,2.9L23.4,2.9z"/>
</svg>
