<svg xmlns="http://www.w3.org/2000/svg" width="58" height="57" viewBox="0 0 58 57"><g><g><g><g><g><path fill="#8cb1da" d="M54.21 36.988c-2.926-2.929-6.987-4.17-12.202-2.772L23.413 15.602l.246-.93a11.717 11.717 0 0 0-3.02-11.27A11.488 11.488 0 0 0 9.395.42a1.666 1.666 0 0 0-.736 2.785l4.477 4.478a3.33 3.33 0 0 1 .004 4.71c-1.283 1.286-3.44 1.284-4.717.003L3.944 7.917a1.666 1.666 0 0 0-2.785.74A11.527 11.527 0 0 0 4.14 19.9c2.926 2.928 6.98 4.173 12.199 2.772l18.596 18.614c-1.387 5.213-.19 9.234 2.775 12.2a11.49 11.49 0 0 0 11.244 2.982 1.667 1.667 0 0 0 .736-2.786l-4.477-4.477a3.33 3.33 0 0 1-.003-4.71c1.299-1.292 3.45-1.271 4.717-.001l4.478 4.477a1.666 1.666 0 0 0 2.785-.74 11.53 11.53 0 0 0-2.981-11.243z"/></g></g></g><g><g><g><path fill="#8cb1da" d="M10.532 49.766a1.666 1.666 0 1 1-2.357-2.357L18.284 37.3a1.666 1.666 0 1 1 2.357 2.356zm8.025-20.146L2.67 45.51a6.673 6.673 0 0 0 0 9.428c2.6 2.6 6.829 2.6 9.429 0l15.887-15.89z"/></g></g></g><g><g><g><path fill="#8cb1da" d="M57.117 3.361L54.244.488a1.667 1.667 0 0 0-2.036-.25L43.37 5.54a1.667 1.667 0 0 0-.321 2.607l.703.704-11.22 11.174 4.715 4.715 11.22-11.174.991.991c.767.767 2.05.609 2.608-.321l5.302-8.839a1.667 1.667 0 0 0-.25-2.036z"/></g></g></g></g></g></svg>