<svg xmlns="http://www.w3.org/2000/svg" width="56" height="57" viewBox="0 0 56 57"><g><g><g><path fill="#8cb1da" d="M19.774 19.502l3.179 3.468V7.074a2.021 2.021 0 0 0-4.043 0v11.714c.32.197.61.437.864.714z"/></g><g><path fill="#8cb1da" d="M50.24 37.242v13.289h5.052V33.757a11.529 11.529 0 0 1-5.053 3.485z"/></g><g><path fill="#8cb1da" d="M29.016 52.552h8.085v4.042h-8.085z"/></g><g><path fill="#8cb1da" d="M10.825 52.552h4.043v4.042h-4.043z"/></g><g><path fill="#8cb1da" d="M33.059 36.382c0-3.4 3.995-6.064 9.095-6.064.823 0 1.644.072 2.454.218l-3.299-6.185a4.104 4.104 0 0 1-.276-.649 1.01 1.01 0 0 1-1.91-.458V7.074a2.021 2.021 0 0 0-4.043 0v16.17a1.01 1.01 0 0 1-2.021 0V15.16a2.021 2.021 0 1 0-4.043 0v35.372h4.043z"/></g><g><path fill="#8cb1da" d="M42.232 19.375a4.022 4.022 0 0 1 2.947-1.183h.007V2.022a2.021 2.021 0 1 0-4.042 0v18.867c.204-.485.5-.927.874-1.299z"/></g><g><path fill="#8cb1da" d="M21.942 37.242v13.289h5.053V33.757a11.529 11.529 0 0 1-5.053 3.485z"/></g><g><path fill="#8cb1da" d="M16.889 52.552h10.106v4.042H16.89z"/></g><g><path fill="#8cb1da" d="M19.92 37.246a1.003 1.003 0 0 1-.132-.188l-2.176-4.082a10.87 10.87 0 0 0-3.755-.636c-3.834 0-7.074 1.85-7.074 4.042v14.149H19.92z"/></g><g><path fill="#8cb1da" d="M45.09 20.212a2.002 2.002 0 0 0-1.428.592l-.215.215a2.01 2.01 0 0 0-.354 2.38l4.26 7.988.083.038-.03.063 2.07 3.882c2.65-.92 4.546-2.66 5.65-5.18l-8.545-9.322a2.004 2.004 0 0 0-1.446-.656h-.046z"/></g><g><path fill="#8cb1da" d="M48.218 37.246a1 1 0 0 1-.132-.188l-2.177-4.082a10.87 10.87 0 0 0-3.755-.636c-3.834 0-7.074 1.85-7.074 4.042v14.149h13.138z"/></g><g><path fill="#8cb1da" d="M39.123 52.552h4.042v4.042h-4.042z"/></g><g><path fill="#8cb1da" d="M48.07 19.502l3.18 3.468V7.074a2.021 2.021 0 0 0-4.043 0v11.714c.32.197.61.437.864.714z"/></g><g><path fill="#8cb1da" d="M45.186 52.552h10.106v4.042H45.186z"/></g><g><path fill="#8cb1da" d="M16.792 20.212a2.002 2.002 0 0 0-1.427.592l-.215.215a2.01 2.01 0 0 0-.354 2.38l4.26 7.988.083.038-.03.063 2.07 3.882c2.65-.92 4.546-2.66 5.65-5.18l-8.545-9.322a2.004 2.004 0 0 0-1.446-.656h-.046z"/></g><g><path fill="#8cb1da" d="M13.935 19.375a4.021 4.021 0 0 1 2.947-1.183h.007V2.022a2.021 2.021 0 0 0-4.042 0v18.867c.204-.485.5-.927.873-1.299z"/></g><g><path fill="#8cb1da" d="M4.762 36.382c0-3.4 3.995-6.064 9.095-6.064.823 0 1.644.072 2.453.218l-3.298-6.185a4.105 4.105 0 0 1-.276-.649 1.01 1.01 0 0 1-1.91-.458V7.074a2.021 2.021 0 1 0-4.043 0v16.17a1.01 1.01 0 0 1-2.021 0V15.16a2.021 2.021 0 1 0-4.043 0v35.372h4.043z"/></g><g><path fill="#8cb1da" d="M.72 52.552h8.084v4.042H.72z"/></g></g></g></svg>