<svg xmlns="http://www.w3.org/2000/svg" width="74" height="35" viewBox="0 0 74 35"><g><g><g><path fill="#8cb1da" d="M68.71 19.242a1.133 1.133 0 0 1-2.267 0v-2.266a1.133 1.133 0 1 1 2.267 0zm1.133-7.932h-6.8c-.625 0-1.132.507-1.132 1.133v11.332c0 .626.507 1.133 1.133 1.133h6.799a3.403 3.403 0 0 0 3.4-3.4V14.71a3.403 3.403 0 0 0-3.4-3.4z"/></g><g><path fill="#8cb1da" d="M7.518 19.242a1.133 1.133 0 0 1-2.266 0v-2.266a1.133 1.133 0 1 1 2.266 0zm3.4-7.932h-6.8a3.403 3.403 0 0 0-3.399 3.4v6.799a3.403 3.403 0 0 0 3.4 3.4h6.799c.626 0 1.133-.508 1.133-1.134V12.443c0-.625-.507-1.133-1.133-1.133z"/></g><g><path fill="#8cb1da" d="M68.314 7.05c-.111-.095-1.077-.898-3.142-1.931l-1.327 1.327a1.133 1.133 0 0 1-1.659-.06 1.162 1.162 0 0 1 .085-1.572l.693-.693a41.17 41.17 0 0 0-2.822-1.03 1.133 1.133 0 0 0-1.151.276L42.315 20.044a1.133 1.133 0 1 1-1.603-1.603L55.54 3.615a1.133 1.133 0 0 0-.558-1.909A73.901 73.901 0 0 0 45.597.331a1.132 1.132 0 0 0-.895.328L33.249 12.11a1.133 1.133 0 1 1-1.602-1.602l8.36-8.36A1.259 1.259 0 0 0 39.14 0h-.035a1.251 1.251 0 0 0-.909.367l-17.411 17.41a1.133 1.133 0 1 1-1.603-1.602l14.17-14.17a1.133 1.133 0 0 0-.85-1.934C13.082.878 5.962 6.78 5.648 7.05a1.134 1.134 0 0 0 .737 1.993h4.533a3.4 3.4 0 0 1 3.4 3.4v11.331a3.4 3.4 0 0 1-3.4 3.4H5.923a.473.473 0 0 0-.328.812l.007.007c.106.1 1.547 1.446 4.623 2.881.432.202.944.112 1.28-.225l16.6-16.6a1.133 1.133 0 0 1 1.603 1.603L14.582 30.779a1.133 1.133 0 0 0 .485 1.89 43.385 43.385 0 0 0 6.294 1.295c.49.065.983.097 1.477.097 4.78 0 9.504-3.007 11.848-7.696l.005-.01a2.579 2.579 0 0 1 2.012-1.432 2.525 2.525 0 0 1 2.544 1.386l.005.01a.814.814 0 0 0 1.303.211l12.48-12.48a1.133 1.133 0 1 1 1.603 1.603l-12.96 12.96a.825.825 0 0 0-.012 1.151c2.912 3.081 7.037 4.71 11.03 4.126 10.225-1.497 15.386-5.664 15.6-5.84l.009-.007a.49.49 0 0 0-.314-.869h-4.947a3.4 3.4 0 0 1-3.4-3.4v-11.33a3.4 3.4 0 0 1 3.4-3.4h4.532a1.133 1.133 0 0 0 .738-1.994z"/></g></g></g></svg>