<svg xmlns="http://www.w3.org/2000/svg" width="66" height="49" viewBox="0 0 66 49"><g><g><g><path fill="#8cb1da" d="M35.582 24.136a2.684 2.684 0 0 1-2.682 2.681c-1.47 0-2.662-1.19-2.682-2.758V5.364A2.684 2.684 0 0 1 32.9 2.682a2.684 2.684 0 0 1 2.682 2.682zm24.135 5.363a26.782 26.782 0 0 0-11.67-22.097 1.347 1.347 0 0 0-1.332-.105c-.43.206-.72.625-.76 1.1l-1.003 12.051c-.058.686-.639 1.225-1.438 1.225h-.008a1.342 1.342 0 0 1-1.225-1.449l1.34-16.09a1.336 1.336 0 0 0-1.335-1.452h-4.769C36.587 1.086 34.876 0 32.9 0s-3.687 1.086-4.618 2.682h-4.768a1.342 1.342 0 0 0-1.336 1.452l1.341 16.09a1.34 1.34 0 0 1-.312.978c-.233.273-.555.44-1.026.474-.692 0-1.276-.54-1.333-1.23L19.845 8.4a1.338 1.338 0 0 0-2.092-.995 26.777 26.777 0 0 0-11.67 22.095v.625C2.476 31.412.719 32.968.719 34.862c0 5.052 15.04 13.41 32.18 13.41 17.141 0 32.182-8.358 32.182-13.41 0-1.894-1.758-3.45-5.364-4.738z"/></g></g></g></svg>