<svg xmlns="http://www.w3.org/2000/svg" width="64" height="50" viewBox="0 0 64 50"><g><g><g><path fill="#8cb1da" d="M16.584 35.917l-.466 4.654c5.737.165 10.63 1.439 14.981 2.571 3.787.986 7.364 1.917 10.812 1.917 6.578 0 18.267-4.134 21.359-5.27-.184-2.09-1.127-7.826-5.945-9.432-2.087-.696-3.887-.444-5.972-.152-3.694.516-7.882 1.102-14.573-3.359a14.783 14.783 0 0 1-.57-.402l-2.515 2.515a1.127 1.127 0 1 1-1.593-1.594l2.391-2.39a20.426 20.426 0 0 1-3.568-4.867l-3.263 1.223a1.127 1.127 0 0 1-.791-2.11l3.06-1.147a36.712 36.712 0 0 1-1.638-4.556h-3.28a1.126 1.126 0 0 1 0-2.253H27.7a52.451 52.451 0 0 1-.486-2.253H3.61V20.8l8.508 5.672a10.117 10.117 0 0 1 4.465 9.445z"/></g><g><path fill="#8cb1da" d="M30.532 45.323c-4.532-1.18-9.668-2.517-15.657-2.517H.231v6.76h4.506v-3.38a1.127 1.127 0 0 1 2.253 0v3.38h4.506v-3.38a1.127 1.127 0 0 1 2.253 0v3.38h4.506v-3.38c0-.622.504-1.127 1.126-1.127.098 0 2.445.013 7.032 1.16 2.252.564 4.12 1.075 5.769 1.527 4.142 1.134 6.643 1.82 9.729 1.82 5.393 0 17.16-3.86 20.639-5.044.457-.155.764-.584.764-1.067v-1.282c-4.003 1.45-14.833 5.139-21.403 5.139-3.736 0-7.449-.966-11.38-1.99z"/></g><g><path fill="#8cb1da" d="M14.342 35.693a7.87 7.87 0 0 0-3.472-7.346l-7.95-5.299-2.332 4.666c-.234.47-.356.987-.357 1.512v11.327h13.625z"/></g><g><path fill="#8cb1da" d="M26.521 4.506h-3.76a1.126 1.126 0 0 1 0-2.253h3.54A55.792 55.792 0 0 1 26.167 0H3.61v6.759h23.212c-.12-.79-.22-1.545-.302-2.253z"/></g></g></g></svg>