<svg xmlns="http://www.w3.org/2000/svg" width="55" height="46" viewBox="0 0 55 46"><g><g><g><g><path fill="#8cb1da" d="M12.526 24.958v18.52c0 1.105.892 1.996 1.996 1.996a1.995 1.995 0 0 0 1.995-1.995v-18.52a1.996 1.996 0 0 0-3.99 0z"/></g><g><path fill="#8cb1da" d="M6.262 45.497h4.394V23.508c.012-.105.032-.21.032-.318 0-9.486 7.656-17.203 17.067-17.203 9.409 0 17.066 7.717 17.066 17.203 0 .145.021.285.043.426v21.88h4.394c3.059 0 5.54-2.566 5.54-5.733V28.297c0-2.612-1.69-4.812-4-5.504C50.585 10.19 40.334 0 27.756 0 15.174 0 4.92 10.191 4.71 22.797 2.405 23.491.719 25.69.719 28.299v11.465c0 3.165 2.482 5.734 5.543 5.734z"/></g><g><path fill="#8cb1da" d="M39.004 24.958v18.52a1.994 1.994 0 1 0 3.991 0v-18.52a1.996 1.996 0 0 0-3.99 0z"/></g></g></g></g></svg>