<svg xmlns="http://www.w3.org/2000/svg" width="50" height="57" viewBox="0 0 50 57"><g><g><g><path fill="#8cb1da" d="M29.021 19.205a1.01 1.01 0 1 1 0-2.022 1.01 1.01 0 0 1 0 2.022zm0 10.108a1.01 1.01 0 1 1 0-2.022 1.01 1.01 0 0 1 0 2.022zm0 10.108a1.01 1.01 0 1 1 0-2.022 1.01 1.01 0 0 1 0 2.022zm0 10.108a1.01 1.01 0 1 1 0-2.022 1.01 1.01 0 0 1 0 2.022zM44.883 7.957l-6.529-2.72-7.607 7.607a1.01 1.01 0 0 1-.715.296h-.046a1.01 1.01 0 0 1-.73-.364l-3.267-3.919v47.737C34.25 56.452 39.5 54.6 41.15 53.923V19.205a1.01 1.01 0 0 1 2.021 0v8.086h6.065V14.488a7.057 7.057 0 0 0-4.354-6.531z"/></g><g><path fill="#8cb1da" d="M43.172 29.313h6.065v2.021h-6.065z"/></g><g><path fill="#8cb1da" d="M20.343 0l4.635 4.635L29.613 0z"/></g><g><path fill="#8cb1da" d="M.72 29.313h6.064v2.021H.719z"/></g><g><path fill="#8cb1da" d="M19.97 13.14h-.046a1.01 1.01 0 0 1-.715-.296l-7.607-7.607-6.529 2.72A7.057 7.057 0 0 0 .72 14.488v12.803h6.065v-8.086a1.01 1.01 0 1 1 2.021 0v34.718c1.649.676 6.9 2.529 15.162 2.671V8.857l-3.266 3.92a1.01 1.01 0 0 1-.731.362z"/></g><g><path fill="#8cb1da" d="M23.61 6.127L17.84.357 13.335 4.11l6.521 6.521z"/></g><g><path fill="#8cb1da" d="M30.1 10.632l6.52-6.521L32.117.357l-5.77 5.77z"/></g></g></g></svg>