<svg xmlns="http://www.w3.org/2000/svg" width="66" height="57" viewBox="0 0 66 57"><g><g><g><path fill="#8cb1da" d="M27.394 30.34H38.77v3.793H27.394z"/></g><g><path fill="#8cb1da" d="M53.23 34.133H42.565v1.896a1.896 1.896 0 0 1-1.896 1.897h-15.17a1.896 1.896 0 0 1-1.897-1.897v-1.896H12.934a5.682 5.682 0 0 1-5.396-3.889L.719 9.786V51.2a5.695 5.695 0 0 0 5.69 5.69h53.348a5.695 5.695 0 0 0 5.689-5.69V9.788l-6.82 20.456a5.681 5.681 0 0 1-5.395 3.889z"/></g><g><path fill="#8cb1da" d="M23.601 7.585V5.69c0-1.047.85-1.896 1.896-1.896h15.17c1.047 0 1.897.85 1.897 1.896v1.896zM25.497 0a5.695 5.695 0 0 0-5.688 5.689v1.896H3.982l7.152 21.46c.26.775.983 1.295 1.8 1.295h10.667v-1.896c0-1.048.848-1.896 1.896-1.896h15.17c1.048 0 1.897.848 1.897 1.896v1.896H53.23c.817 0 1.54-.52 1.8-1.296l7.152-21.459H46.356V5.69A5.695 5.695 0 0 0 40.668 0z"/></g></g></g></svg>