<svg xmlns="http://www.w3.org/2000/svg" width="36" height="57" viewBox="0 0 36 57"><g><g><path fill="#8cb1da" d="M25.608 31.68v14.934c0 .946-.766 1.712-1.712 1.712h-7.01a1.712 1.712 0 0 1-1.71-1.712V31.681c0-.946.766-1.712 1.71-1.712h7.01c.946 0 1.712.766 1.712 1.712zm9.46-20.088a11.827 11.827 0 0 0-6.544-4.587l-4.118-1.127c2.413-.788 4.528-2.304 6-4.387a.946.946 0 0 0-.96-1.472L17.462 2.454a.716.716 0 0 0-.575.703v3.077h-1.115a.717.717 0 0 0-.716.717v.176c-7.41.192-13.38 6.266-13.38 13.72V31.51a2.848 2.848 0 0 0-.957 2.123v12.584a2.866 2.866 0 0 0 2.868 2.867 2.866 2.866 0 0 0 2.867-2.867V33.632a2.85 2.85 0 0 0-.956-2.123V20.847c0-5.345 4.258-9.685 9.558-9.878v.123c0 .396.32.717.716.717h1.115v3.582c-4.573 1.478-7.885 5.767-7.885 10.834v27.856a2.808 2.808 0 0 0 2.808 2.807h17.163a2.807 2.807 0 0 0 2.808-2.807V26.225c0-5.067-3.31-9.356-7.885-10.834v-4.402l10.209 2.075a.947.947 0 0 0 .963-1.472z"/></g></g></svg>