<svg xmlns="http://www.w3.org/2000/svg" width="58" height="57" viewBox="0 0 58 57"><g><g><g><path fill="#8cb1da" d="M34.618 5.564c-.015-.015-.036-.02-.052-.034-.08-.074-.177-.12-.27-.177-.095-.057-.184-.124-.286-.16-.016-.006-.027-.019-.043-.024L18.206.084a1.65 1.65 0 0 0-2.09 1.06l-3.088 9.397a1.657 1.657 0 0 0 1.06 2.09 1.652 1.652 0 0 1 1.072 2.009l9.488 3.097a1.663 1.663 0 0 1 2.05-.99l1.686.551a12.303 12.303 0 0 0 3.477 11.05l.557.548c.323.32.743.478 1.164.478a1.658 1.658 0 0 0 1.164-2.838l-.555-.55c-2.227-2.198-3.061-5.31-2.422-8.317l6.175-.922a1.661 1.661 0 0 0 1.333-1.125l1.028-3.153a1.664 1.664 0 0 0-.412-1.695z"/></g><g><path fill="#8cb1da" d="M55.422 10.059H45.78a1.657 1.657 0 1 0 0 3.316h9.64a1.657 1.657 0 1 0 0-3.316z"/></g><g><path fill="#8cb1da" d="M44.741 17.054a1.664 1.664 0 0 0-2.332.259 1.66 1.66 0 0 0 .26 2.331l8.29 6.632a1.661 1.661 0 0 0 2.332-.26 1.66 1.66 0 0 0-.26-2.33z"/></g><g><path fill="#8cb1da" d="M24.082 36.986a6.37 6.37 0 0 1-.873-.059c-3.322-.472-7.39-4.344-7.843-4.784-1.414-1.372-4.294-3.639-5.997-3.88-.582-.085-1.376.056-2.214.265L.568 48.368a1.657 1.657 0 0 0 1.06 2.09l19.025 6.054a1.655 1.655 0 0 0 2.09-1.06l2.058-6.183c1.44-4.408 1.254-8.51.666-12.463-.466.07-.942.18-1.385.18z"/></g><g><path fill="#8cb1da" d="M17.678 29.766c1.414 1.37 4.294 3.636 5.998 3.878.34.046.786-.01 1.239-.076l-.156-.849c-.745-3.977-1.434-7.782-.868-11.742L13.665 17.64c-.56.806-1.188 1.551-1.837 2.315-1.23 1.446-2.474 2.966-3.387 4.992a6.813 6.813 0 0 1 1.394.034c3.322.472 7.39 4.345 7.843 4.786z"/></g></g></g></svg>