<svg xmlns="http://www.w3.org/2000/svg" width="27" height="24" viewBox="0 0 27 24"><g><g><g><path fill="#383d47" d="M.467 12c0-6.627 5.82-12 13-12s13 5.373 13 12-5.82 12-13 12-13-5.373-13-12z"/></g><g><path fill="#fff" d="M16.336 7.835a.78.78 0 1 0 0 1.562.78.78 0 0 0 0-1.562zm-3.472 6.42a2.167 2.167 0 1 1-.002-4.335 2.167 2.167 0 0 1 .002 4.334zm0-5.508a3.34 3.34 0 1 0 0 6.679 3.34 3.34 0 0 0 0-6.68zm0-1.994c1.736 0 1.943.009 2.628.039.634.03.979.135 1.207.225.305.117.52.258.75.485.226.228.367.444.485.749.089.228.195.573.224 1.207.03.686.038.892.038 2.628 0 1.737-.008 1.943-.04 2.629-.033.634-.14.978-.229 1.207-.12.305-.26.52-.487.749a2.03 2.03 0 0 1-.748.486c-.227.089-.577.195-1.211.223-.69.031-.894.038-2.634.038-1.74 0-1.943-.008-2.633-.04-.635-.033-.984-.138-1.212-.228a2.014 2.014 0 0 1-.747-.487 1.975 1.975 0 0 1-.488-.748c-.09-.228-.195-.577-.228-1.211-.024-.683-.033-.894-.033-2.626 0-1.732.009-1.943.033-2.634.033-.635.138-.984.228-1.211.114-.31.26-.52.488-.749.227-.227.439-.373.747-.486.228-.09.57-.196 1.204-.229.69-.024.894-.032 2.633-.032l.025.016zm0-1.17c-1.767 0-1.988.008-2.682.039-.692.032-1.164.141-1.578.302-.428.166-.791.389-1.153.75a3.173 3.173 0 0 0-.75 1.152c-.16.415-.27.886-.302 1.58-.033.693-.04.913-.04 2.68 0 1.767.009 1.988.04 2.682.032.692.141 1.164.302 1.578.166.427.389.791.75 1.153a3.18 3.18 0 0 0 1.153.75c.415.16.886.27 1.578.302.694.033.915.04 2.682.04s1.987-.009 2.68-.04c.693-.032 1.165-.142 1.58-.302.427-.166.79-.39 1.152-.75.36-.362.585-.724.75-1.153.16-.414.27-.886.302-1.578.033-.694.04-.915.04-2.682s-.009-1.987-.04-2.68c-.032-.693-.142-1.166-.302-1.58a3.192 3.192 0 0 0-.75-1.152 3.169 3.169 0 0 0-1.152-.75c-.415-.161-.887-.27-1.58-.302-.693-.033-.913-.04-2.68-.04z"/></g></g></g></svg>