<?xml version="1.0"?>
<svg xmlns="http://www.w3.org/2000/svg" xmlns:xlink="http://www.w3.org/1999/xlink" xmlns:svgjs="http://svgjs.com/svgjs" version="1.1" width="512" height="512" x="0" y="0" viewBox="0 0 512 512" style="enable-background:new 0 0 512 512" xml:space="preserve" class=""><g><g xmlns="http://www.w3.org/2000/svg" id="Face_Shield" data-name="Face Shield"><g id="Glyph"><path d="M463.64,144c-1.582-59.876-26.229-100.876-64.525-105.383-47.287-92.307-226.3,9.977-304.5,9.977C69.13,48.594,56.05,32.8,55.537,32.17a8.007,8.007,0,0,0-14.278,4.707C40.177,71.871,51.366,115.256,77.2,144Z" fill="#8cb1da" data-original="#000000" style="" class=""/><path d="M64,288.145v.96c.562,6.366,11.655,9.559,34.24,23.555l19.287,64.307a47.188,47.188,0,0,0,39.965,33.415c4.462-13.291,1.636-7.17,2.508-186.382h-8a40.069,40.069,0,0,1-39.195-32H96v48.924C74.805,270.491,64.474,281.314,64,288.145Z" fill="#8cb1da" data-original="#000000" style="" class=""/><path d="M208,224V444c-8.613,6.622-40,37.352-56.906,68H412.962c-9.953-18.354-22.06-48.186-36.962-66.818V382.1c40.828-55.151,65.889-108.544,78.268-158.1Z" fill="#8cb1da" data-original="#000000" style="" class=""/><path d="M472,160H40a8,8,0,0,0-8,8c1.072,328.2-2.562,313.538,2.829,318.1,4.09,3.464.5,2.745,90.323-12.185A79.75,79.75,0,0,0,192,395.007V208H440C477.192,208,490.236,160,472,160ZM176,395.007a63.8,63.8,0,0,1-53.479,63.129L48,470.557V176h81.376A24.023,24.023,0,0,0,152,208h24Z" fill="#8cb1da" data-original="#000000" style="" class=""/></g></g></g></svg>
