<?xml version="1.0"?>
<svg xmlns="http://www.w3.org/2000/svg" xmlns:xlink="http://www.w3.org/1999/xlink" xmlns:svgjs="http://svgjs.com/svgjs" version="1.1" width="512" height="512" x="0" y="0" viewBox="0 0 54 56" style="enable-background:new 0 0 512 512" xml:space="preserve" class=""><g><g xmlns="http://www.w3.org/2000/svg" id="Page-1" fill="none" fill-rule="evenodd"><g id="030---Facemask" fill="rgb(0,0,0)" fill-rule="nonzero"><path id="Shape" d="m37.926 6.048c.9.288 1.735.609 2.537.944-2.191-2.799-6.609-6.992-13.463-6.992s-11.272 4.193-13.463 6.992c.8-.335 1.636-.656 2.537-.944 7.1089314-2.25849476 14.7430686-2.25849476 21.852 0z" fill="#8cb1da" data-original="#000000" style="" class=""/><path id="Shape" d="m7.25 38.157-2.442 1.461c.48119311.262216.93830045.5663965 1.366.909 1.8625404 1.5817554 3.43801174 3.4732006 4.657 5.591 1.2903935 2.0751428 2.2123036 4.3577584 2.725 6.747.0996301.539047.1514979 1.0858344.155 1.634l2.442-1.461c.765-.458.683-3.975-2.2-8.789s-5.942-6.544-6.703-6.092z" fill="#8cb1da" data-original="#000000" style="" class=""/><path id="Shape" d="m6.942 15.335c-1.353 4.055.294 12.145 4.638 22.773.7932706.7225117 1.5241942 1.5106379 2.185 2.356l6.535-10.02c1.4769644-2.2636772 3.9971019-3.6285014 6.7-3.6285014s5.2230356 1.3648242 6.7 3.6285014l6.535 10.02c.6598616-.8443084 1.3901457-1.6311284 2.183-2.352 4.345-10.63 5.992-18.722 4.633-22.795-.6500239-1.8410356-1.9054515-3.4070591-3.561-4.442-1.8977273-1.28265718-3.9800099-2.26832714-6.175-2.923-6.7122588-2.1309832-13.9197412-2.1309832-20.632 0-2.194771.65443088-4.2767595 1.64012126-6.174 2.923-1.67001687 1.0282745-2.93090172 2.6048224-3.567 4.46zm6.528 8.513c-.224904-.1405644-.3847573-.3647146-.444394-.6231399-.0596366-.2584252-.0141713-.5299567.126394-.7548601l5-8c.1893508-.3036758.5263272-.4832663.8839935-.4711216s.6816845.2141795.85.53c.1683155.3158204.1553573.6974458-.0339935 1.0011216l-5 8c-.1405912.2260145-.3654874.386653-.6248826.4463402-.2593953.0596872-.531883.0134974-.7571174-.1283402zm13.378-10.318-10 16c-.2927109.469442-.910558.6127109-1.38.32s-.6127109-.910558-.32-1.38l10-16c.2927109-.469442.910558-.6127109 1.38-.32s.6127109.910558.32 1.38zm-18.028 2.495c.51456849-1.4690794 1.5219766-2.7146471 2.851-3.525 1.7305582-1.1629256 3.6288534-2.0542375 5.629-2.643 6.3147558-2.0000134 13.0932442-2.0000134 19.408 0 1.9991186.5900462 3.8961012 1.4827241 5.625 2.647 1.2844697.7988232 2.272642 1.9955863 2.814 3.408 1.116 3.376-.293 10.511-3.852 19.621-.2010316.5144532-.7810468.7685316-1.2955.5675s-.7685316-.7810468-.5675-1.2955c3.292-8.428 4.76-15.41 3.832-18.223-.3915651-1.0317664-1.1287689-1.8958427-2.086-2.445-1.5620576-1.0450228-3.2744319-1.8455696-5.078-2.374-5.9197415-1.87501765-12.2742585-1.87501765-18.194 0-1.8021345.5284538-3.5131376 1.328653-5.074 2.373-.9860279.5713754-1.7375458 1.4738347-2.121 2.547-.707 2.137-.071 8.043 3.862 18.125.1395427.3348907.0867583.7190914-.1379292 1.0039414-.2246874.28485-.5860295.4256629-.9442104.3679532s-.6570102-.3048886-.7808604-.6458946c-3.56-9.117-4.977-16.227-3.89-19.509z" fill="#8cb1da" data-original="#000000" style="" class=""/><path id="Shape" d="m8.1 10.245-5.056-2.587c-.43366205-.22185622-.96408899-.09896271-1.256.291l-.7.928c-.16675976.22246601-.23337484.50431469-.18385662.77789811.04951822.27358343.21069903.51420139.44485662.66410189l4.392 2.814c.61732149-1.0891672 1.41497547-2.0656931 2.359-2.888z" fill="#8cb1da" data-original="#000000" style="" class=""/><path id="Shape" d="m9.114 47.146c-1.09435505-1.9134023-2.51082219-3.6235149-4.187-5.055-1.258-1-2.171-1.244-2.518-1.037s-.565 1.125-.276 2.709c.4692166 2.1534439 1.30613736 4.2098874 2.474 6.079 2.882 4.816 5.946 6.547 6.706 6.092.345-.207.565-1.125.276-2.71-.4690031-2.1533571-1.306303-4.2095627-2.475-6.078z" fill="#8cb1da" data-original="#000000" style="" class=""/><path id="Shape" d="m47.826 40.527c.4276995-.3426035.8848069-.646784 1.366-.909l-2.442-1.461c-.763-.452-3.822 1.275-6.7 6.092s-2.963 8.331-2.2 8.789l2.439 1.462c.0035021-.5481656.0553699-1.094953.155-1.634.5126964-2.3892416 1.4346065-4.6718572 2.725-6.747 1.2188937-2.118156 2.79437-4.0099455 4.657-5.592z" fill="#8cb1da" data-original="#000000" style="" class=""/><path id="Shape" d="m38.328 43.222c.208-.349.427-.69.651-1.027l-6.954-10.658c-1.1077233-1.6977579-2.9978264-2.7213761-5.025-2.7213761s-3.9172767 1.0236182-5.025 2.7213761l-6.953 10.663c.223.336.442.677.65 1.025 1.9 3.183 3.151 6.788 2.841 9.2 2.2716193 2.2273079 5.3063798 3.5056476 8.487 3.575 3.1806202-.0693524 6.2153807-1.3476921 8.487-3.575-.31-2.415.937-6.02 2.841-9.203zm-5.768 8.978c-3.3177616 2.4012843-7.8022384 2.4012843-11.12 0-.2959945-.2000687-.4627694-.5428511-.437502-.8992242.0252673-.3563732.2387381-.6721956.56-.8285.3212618-.1563045.7015075-.1293445.997502.0707242 2.6438103 1.9348606 6.2361897 1.9348606 8.88 0 .2959945-.2000688.6762402-.2270287.9975021-.0707243s.5347327.4721269.56.8285001c.0252673.3563731-.1415075.6991555-.4375021.8992242zm-7.56-5.2h4c.5522847 0 1 .4477153 1 1s-.4477153 1-1 1h-4c-.5522847 0-1-.4477153-1-1s.4477153-1 1-1zm-1-3c0-.5522847.4477153-1 1-1h4c.5522847 0 1 .4477153 1 1s-.4477153 1-1 1h-4c-.5522847 0-1-.4477153-1-1zm9-3c0 .5522847-.4477153 1-1 1s-1-.4477153-1-1v-1c0-2.209139-1.790861-4-4-4s-4 1.790861-4 4v1c0 .5522847-.4477153 1-1 1s-1-.4477153-1-1v-1c0-3.3137085 2.6862915-6 6-6s6 2.6862915 6 6z" fill="#8cb1da" data-original="#000000" style="" class=""/><path id="Shape" d="m51.591 41.054c-.578-.346-1.964.6-2.518 1.037-1.6761778 1.4314851-3.092645 3.1415977-4.187 5.055-1.168697 1.8684373-2.0059969 3.9246429-2.475 6.078-.289 1.585-.069 2.5.277 2.71.765.455 3.823-1.275 6.7-6.092 1.1678626-1.8691126 2.0047834-3.9255561 2.474-6.079.294-1.584.075-2.502-.271-2.709z" fill="#8cb1da" data-original="#000000" style="" class=""/><path id="Shape" d="m52.908 8.877-.7-.929c-.2921963-.38960984-.8225721-.51206923-1.256-.29l-5.052 2.587c.9413995.8224932 1.7369466 1.7982471 2.353 2.886l4.39-2.812c.2341576-.1499005.3953384-.39051846.4448566-.66410189.0495182-.27358342-.0170968-.5554321-.1838566-.77789811z" fill="#8cb1da" data-original="#000000" style="" class=""/></g></g></g></svg>
