<?xml version="1.0"?>
<svg xmlns="http://www.w3.org/2000/svg" xmlns:xlink="http://www.w3.org/1999/xlink" xmlns:svgjs="http://svgjs.com/svgjs" version="1.1" width="512" height="512" x="0" y="0" viewBox="0 0 458.936 458.936" style="enable-background:new 0 0 512 512" xml:space="preserve" class=""><g>
<g xmlns="http://www.w3.org/2000/svg">
	<g id="XMLID_1073_">
		<path id="XMLID_1076_" d="M455.453,115.38c-3.332-8.689-13.074-13.034-21.768-9.702l-55.54,21.296    c-67.147-10.009-37.163-4.893-130.495-22.12l-32.667-27.379l28.443-52.605c4.426-8.187,1.378-18.412-6.81-22.839    c-8.186-4.427-18.412-1.378-22.839,6.809l-34.921,64.586c-3.778,6.989-2.162,15.667,3.878,20.828l57.763,49.346l-15.564,84.329    l-54.314,31.092c-7.496,4.292-11.438,12.87-9.814,21.353l14.271,74.53c1.854,9.685,10.329,16.424,19.839,16.423    c1.261,0,2.541-0.119,3.825-0.365c10.97-2.1,18.159-12.695,16.059-23.664l-11.556-60.35l37.25-21.323l34.351,6.34l17.809,56.703    l-38.151,93.412c-4.223,10.339,0.735,22.145,11.074,26.367c2.504,1.022,5.093,1.507,7.64,1.507    c7.972,0,15.527-4.746,18.728-12.582l40.909-100.162c1.782-4.362,1.984-9.21,0.572-13.706l-22.272-70.915l18.237-98.808    l48.169,7.18c2.795,0.417,5.731,0.136,8.518-0.933l59.676-22.882C454.442,133.816,458.786,124.07,455.453,115.38z" fill="#8cb1da" data-original="#000000" style="" class=""/>
		<circle id="XMLID_1088_" cx="300.28" cy="65.6" r="34.926" fill="#8cb1da" data-original="#000000" style="" class=""/>
		<path id="XMLID_1089_" d="M216.814,396.922H13.156c-5.961,0-10.794,4.832-10.794,10.794v40.426    c0,5.961,4.833,10.794,10.794,10.794h203.657c5.961,0,10.794-4.833,10.794-10.794v-40.426    C227.608,401.754,222.775,396.922,216.814,396.922z" fill="#8cb1da" data-original="#000000" style="" class=""/>
	</g>
</g>
<g xmlns="http://www.w3.org/2000/svg">
</g>
<g xmlns="http://www.w3.org/2000/svg">
</g>
<g xmlns="http://www.w3.org/2000/svg">
</g>
<g xmlns="http://www.w3.org/2000/svg">
</g>
<g xmlns="http://www.w3.org/2000/svg">
</g>
<g xmlns="http://www.w3.org/2000/svg">
</g>
<g xmlns="http://www.w3.org/2000/svg">
</g>
<g xmlns="http://www.w3.org/2000/svg">
</g>
<g xmlns="http://www.w3.org/2000/svg">
</g>
<g xmlns="http://www.w3.org/2000/svg">
</g>
<g xmlns="http://www.w3.org/2000/svg">
</g>
<g xmlns="http://www.w3.org/2000/svg">
</g>
<g xmlns="http://www.w3.org/2000/svg">
</g>
<g xmlns="http://www.w3.org/2000/svg">
</g>
<g xmlns="http://www.w3.org/2000/svg">
</g>
</g></svg>
