<?xml version="1.0"?>
<svg xmlns="http://www.w3.org/2000/svg" xmlns:xlink="http://www.w3.org/1999/xlink" xmlns:svgjs="http://svgjs.com/svgjs" version="1.1" width="512" height="512" x="0" y="0" viewBox="0 0 512 512" style="enable-background:new 0 0 512 512" xml:space="preserve" class=""><g><g xmlns="http://www.w3.org/2000/svg"><path d="m414.027 271h-143.027l53.027 90h149.997z" fill="#8cb1da" data-original="#000000" style="" class=""/><path d="m37.976 361h149.997l53.027-90h-143.027z" fill="#8cb1da" data-original="#000000" style="" class=""/><path d="m256 0-60 60h30v181h60v-181h30z" fill="#8cb1da" data-original="#000000" style="" class=""/><path d="m436 106v30h-30c-49.629 0-90 40.371-90 90v15h60v-15c0-16.538 13.462-30 30-30h30v30l60-60z" fill="#8cb1da" data-original="#000000" style="" class=""/><path d="m16 166 60 60v-30h30c16.538 0 30 13.462 30 30v15h60v-15c0-49.629-40.371-90-90-90h-30v-30z" fill="#8cb1da" data-original="#000000" style="" class=""/><path d="m421 391h-114.111l-35.889-60.905v181.905h150z" fill="#8cb1da" data-original="#000000" style="" class=""/><path d="m241 330.095-35.889 60.905h-114.111v121h150z" fill="#8cb1da" data-original="#000000" style="" class=""/></g></g></svg>
