<?xml version="1.0"?>
<svg xmlns="http://www.w3.org/2000/svg" xmlns:xlink="http://www.w3.org/1999/xlink" xmlns:svgjs="http://svgjs.com/svgjs" version="1.1" width="512" height="512" x="0" y="0" viewBox="0 0 512 512" style="enable-background:new 0 0 512 512" xml:space="preserve" class=""><g><path xmlns="http://www.w3.org/2000/svg" d="M409.754,175.9H246.246l8-32H401.754Zm4,16,10,40H241.874a24.136,24.136,0,0,0-8.144-5.938l8.516-34.062Zm-71.234,168H298a2,2,0,0,1-2-2v-20a2,2,0,0,1,2-2h38.391A121.475,121.475,0,0,1,342.52,359.9Zm16.156,0a138.367,138.367,0,0,0-90.472-112h159.55l28,112ZM224,239.9a8.009,8.009,0,0,1,8,8V389.4l-22.147-5.273a8,8,0,0,0-3.706,0L184,389.4V247.9a8.009,8.009,0,0,1,8-8Zm24,18.817A122.268,122.268,0,0,1,329.158,319.9H298a18.021,18.021,0,0,0-18,18v20a18.02,18.02,0,0,0,18,18h46.628l5.426,41.6L248,393.205ZM383.445,428.978a8,8,0,0,0-5.592-4.856l-11.147-2.654L360.763,375.9h98.991l18,72H374.948l7.708-11.562A8,8,0,0,0,383.445,428.978ZM286.246,15.9h83.508l28,112H258.246Zm-58.007,166.06L223.7,200.129l-27.721-48.014,46.426-26.8Zm-113.6-1.363-18.657-5a8,8,0,0,0-10.055,8.207L86.7,196.73,65,209.258a2,2,0,0,1-2.732-.732l-30-51.962A2,2,0,0,1,33,153.833l21.7-12.528,10.8,7.132a8,8,0,0,0,12.136-4.606l5-18.655,90.2-52.079L238.1,109.323Zm67.484-20.487,36,62.344-.362,1.446H192a24.022,24.022,0,0,0-21.157,12.678l-30.292-52.467ZM79.617,335.9H118a2,2,0,0,1,2,2v20a2,2,0,0,1-2,2H73.48A121.233,121.233,0,0,1,79.617,335.9Zm-8.245,40H118a18.02,18.02,0,0,0,18-18v-20a18.021,18.021,0,0,0-18-18H86.86A122.387,122.387,0,0,1,168,258.722V393.205L65.946,417.5ZM53.029,437.026,208,400.128l154.971,36.9L355.719,447.9H60.281ZM16,463.9H496v32H16Z" fill="#8cb1da" data-original="#000000" style=""/></g></svg>
