<svg xmlns="http://www.w3.org/2000/svg" width="26" height="32" viewBox="0 0 26 32"><g><g><path fill="#fff" d="M16.555 18.982h-1.143a1.016 1.016 0 1 0 0 2.032h1.143a1.016 1.016 0 0 0 0-2.032zm-6.03 0H9.38a1.016 1.016 0 0 0 0 2.032h1.143a1.016 1.016 0 0 0 0-2.032zm6.03-3.809h-1.143a1.016 1.016 0 1 0 0 2.032h1.143a1.016 1.016 0 0 0 0-2.032zm-6.03 0H9.38a1.016 1.016 0 0 0 0 2.032h1.143a1.016 1.016 0 0 0 0-2.032zm6.03-3.81h-1.143a1.016 1.016 0 1 0 0 2.032h1.143a1.016 1.016 0 0 0 0-2.031zm-6.03 0H9.38a1.016 1.016 0 0 0 0 2.032h1.143a1.016 1.016 0 0 0 0-2.031zm6.03-3.808h-1.143a1.016 1.016 0 1 0 0 2.031h1.143a1.016 1.016 0 0 0 0-2.031zm-6.03 0H9.38a1.016 1.016 0 0 0 0 2.031h1.143a1.016 1.016 0 0 0 0-2.031zm6.538 21.902V25.14h.444a1.016 1.016 0 0 0 0-2.031H8.493a1.016 1.016 0 0 0 0 2.031h.444v4.317H5.255V5.587h15.49v23.87zm-6.095 0V25.14h4.064v4.317zM7.096 2.032h5.015v1.523H7.096zm15.68 27.425V4.571c0-.561-.454-1.016-1.015-1.016h-7.618v-2.54c0-.56-.455-1.015-1.016-1.015H6.08c-.56 0-1.016.455-1.016 1.016v2.54H4.24c-.561 0-1.016.454-1.016 1.015v24.886H1.192a1.016 1.016 0 0 0 0 2.032h23.616a1.016 1.016 0 1 0 0-2.032z"/></g></g></svg>